<svg width="339" height="396" viewBox="0 0 339 396" fill="none" xmlns="http://www.w3.org/2000/svg">
<rect width="339" height="396" rx="30" fill="#DEEDE0"/>
<g clip-path="url(#clip0_1_1242)">
<path d="M98.8005 130.558L88.9833 136.768L191.224 287.101L201.042 280.892L98.8005 130.558Z" fill="#E6E6E6"/>
<path d="M75.4284 73.9835L98.1423 107.382C98.5821 108.028 98.7376 108.817 98.5744 109.574C98.4112 110.332 97.9428 110.996 97.2721 111.42C96.6015 111.844 95.7835 111.994 94.9983 111.836C94.213 111.679 93.5248 111.227 93.0849 110.581L66.9726 72.1853C63.4282 71.8999 59.8657 72.4641 56.6022 73.8278L85.0527 115.661C85.4922 116.308 85.6474 117.096 85.4842 117.854C85.3209 118.611 84.8525 119.274 84.182 119.698C83.5114 120.122 82.6937 120.272 81.9086 120.115C81.1235 119.958 80.4353 119.506 79.9953 118.86L51.5448 77.0267C48.9475 79.37 46.9914 82.2964 45.8507 85.5452L71.963 123.94C72.4026 124.587 72.5578 125.376 72.3945 126.133C72.2312 126.89 71.7628 127.554 71.0923 127.978C70.4218 128.402 69.6041 128.552 68.819 128.395C68.0339 128.237 67.3456 127.786 66.9057 127.139L44.1918 93.7411C43.6084 103.053 46.7567 114.091 53.6564 124.236C66.4799 143.091 87.3974 151.721 100.377 143.512C113.357 135.302 113.484 113.361 100.66 94.5056C93.7604 84.3603 84.5174 77.1778 75.4284 73.9835Z" fill="#E6E6E6"/>
<path d="M142.817 109.992H131.077V289.776H142.817V109.992Z" fill="#E6E6E6"/>
<path d="M136.769 121.657C152.292 121.657 164.875 103.378 164.875 80.8287C164.875 58.2796 152.292 40 136.769 40C121.247 40 108.663 58.2796 108.663 80.8287C108.663 103.378 121.247 121.657 136.769 121.657Z" fill="#E6E6E6"/>
<path d="M136.769 114.422C149.541 114.422 159.894 99.3818 159.894 80.8287C159.894 62.2757 149.541 47.2355 136.769 47.2355C123.998 47.2355 113.644 62.2757 113.644 80.8287C113.644 99.3818 123.998 114.422 136.769 114.422Z" fill="#CCCCCC"/>
<path d="M169.5 299C241.021 299 299 295.792 299 291.834C299 287.877 241.021 284.669 169.5 284.669C97.9792 284.669 40 287.877 40 291.834C40 295.792 97.9792 299 169.5 299Z" fill="#E6E6E6"/>
<path d="M246.086 291.729C197.554 283.293 147.85 283.293 99.3182 291.729C98.5473 291.864 97.7551 291.834 96.9976 291.641C96.24 291.448 95.5356 291.097 94.934 290.613C94.3324 290.129 93.8482 289.524 93.5157 288.84C93.1832 288.156 93.0104 287.409 93.0096 286.654V222.528H252.394V286.654C252.393 287.409 252.221 288.156 251.888 288.84C251.556 289.524 251.072 290.129 250.47 290.613C249.868 291.097 249.164 291.448 248.406 291.641C247.649 291.834 246.857 291.864 246.086 291.729Z" fill="#7EB685"/>
<path d="M237.808 175.181C234.128 175.177 230.473 175.767 226.994 176.926C221.92 166.313 213.813 157.316 203.623 150.99C193.433 144.665 181.584 141.274 169.466 141.215C157.348 141.156 145.464 144.431 135.208 150.657C124.953 156.883 116.752 165.8 111.567 176.363C106.461 174.982 101.087 174.805 95.8953 175.845C90.7039 176.886 85.8479 179.115 81.7363 182.344C77.6247 185.573 74.378 189.707 72.2696 194.399C70.1613 199.091 69.253 204.203 69.6214 209.304C69.9898 214.405 71.624 219.346 74.3864 223.711C77.1487 228.076 80.9584 231.737 85.4944 234.385C90.0304 237.033 95.1598 238.591 100.451 238.928C105.742 239.265 111.039 238.37 115.896 236.32C121.735 244.9 129.709 251.932 139.091 256.774C148.473 261.617 158.964 264.115 169.605 264.042C180.245 263.968 190.698 261.324 200.006 256.352C209.315 251.38 217.184 244.237 222.893 235.577C227.354 237.749 232.267 238.918 237.263 238.997C242.26 239.076 247.21 238.063 251.742 236.033C256.274 234.003 260.271 231.01 263.432 227.278C266.593 223.546 268.836 219.172 269.994 214.484C271.152 209.796 271.193 204.916 270.116 200.21C269.038 195.505 266.87 191.095 263.773 187.314C260.676 183.532 256.731 180.475 252.234 178.374C247.737 176.273 242.805 175.181 237.808 175.181Z" fill="#7EB685"/>
<path d="M105.817 202.629H105.106C105.082 193.493 107.178 184.468 111.242 176.215L111.885 176.509C107.866 184.67 105.793 193.595 105.817 202.629Z" fill="#3F3D56"/>
<path d="M233.183 202.629H232.471C232.493 193.803 230.515 185.079 226.674 177.068L227.321 176.78C231.204 184.881 233.205 193.703 233.183 202.629Z" fill="#3F3D56"/>
<path d="M93.0955 252.368L92.9238 251.702C93.1246 251.654 113.346 246.864 142.981 244.488C170.332 242.294 211.533 241.765 252.481 251.702L252.307 252.368C211.459 242.456 170.349 242.982 143.055 245.171C113.473 247.542 93.2958 252.32 93.0955 252.368Z" fill="#3F3D56"/>
<path d="M93.0955 261.632L92.9238 260.965C93.1246 260.918 113.346 256.128 142.981 253.751C170.332 251.558 211.533 251.029 252.481 260.966L252.307 261.631C211.459 251.719 170.349 252.247 143.055 254.434C113.473 256.805 93.2958 261.584 93.0955 261.632Z" fill="#3F3D56"/>
<path d="M93.0955 270.895L92.9238 270.229C93.1246 270.181 113.346 265.392 142.981 263.015C170.332 260.822 211.533 260.293 252.481 270.23L252.307 270.895C211.459 260.983 170.349 261.51 143.055 263.698C113.473 266.069 93.2958 270.847 93.0955 270.895Z" fill="#3F3D56"/>
<path d="M224.028 220.523L215.407 217.697L223.683 176.961L217.993 176.462C212.446 180.567 205.058 182.177 195.58 180.952L210.752 203.065L203.016 208.332L178.337 179.784C177.225 178.497 176.615 176.875 176.615 175.2C176.615 173.647 177.139 172.136 178.108 170.895C179.076 169.654 180.437 168.75 181.984 168.32L208.339 160.999L239.2 164.325C243.865 171.185 244.048 175.956 236.945 177.332L224.028 220.523Z" fill="#2F2E41"/>
<path d="M215.205 236.37C214.313 236.316 213.448 236.06 212.679 235.622C211.91 235.185 211.259 234.579 210.778 233.853C210.298 233.127 210.001 232.302 209.913 231.445C209.825 230.589 209.948 229.724 210.272 228.921L214.557 218.294C216.734 214.317 219.722 214.815 223.25 218.294L224.974 223.171C225.116 223.572 225.172 223.998 225.139 224.421C225.107 224.844 224.986 225.256 224.783 225.633L220.606 233.421C220.1 234.365 219.319 235.147 218.36 235.671C217.401 236.194 216.305 236.437 215.205 236.37Z" fill="#2F2E41"/>
<path d="M204.064 222.453C203.173 222.399 202.307 222.143 201.538 221.705C200.769 221.268 200.118 220.662 199.637 219.936C199.157 219.21 198.86 218.385 198.772 217.529C198.684 216.672 198.807 215.807 199.131 215.004L203.416 204.377C205.593 200.4 208.581 200.898 212.109 204.377L213.833 209.254C213.975 209.655 214.031 210.081 213.998 210.504C213.966 210.927 213.845 211.339 213.643 211.716L209.465 219.504C208.959 220.448 208.179 221.23 207.219 221.754C206.26 222.277 205.164 222.52 204.064 222.453Z" fill="#2F2E41"/>
<path d="M209.545 122.093C214.878 122.093 219.2 117.924 219.2 112.782C219.2 107.639 214.878 103.471 209.545 103.471C204.213 103.471 199.891 107.639 199.891 112.782C199.891 117.924 204.213 122.093 209.545 122.093Z" fill="#FFB9B9"/>
<path d="M224.545 125.917L211.269 132.568L208.511 120.596L217.648 115.109L224.545 125.917Z" fill="#FFB9B9"/>
<path d="M240.579 165.987C227.332 162.129 215.313 160.13 206.614 163.161C209.613 155.027 204.079 142.605 197.994 129.907C200.619 126.598 204.805 125.315 209.545 124.753C214.731 128.385 218.348 126.054 221.097 120.43C227.093 120.198 232.871 122.246 238.51 125.751C234.102 139.367 234.895 152.775 240.579 165.987Z" fill="#3F3D56"/>
<path d="M206.442 165.156C204.35 166.345 202.42 168.348 200.58 170.809C197.471 168.974 194.735 166.884 192.58 164.399C191.072 162.637 190.043 160.54 189.588 158.297C189.132 156.055 189.265 153.738 189.972 151.557L195.864 133.091C196.354 131.557 197.304 130.198 198.596 129.186L199.373 128.577L207.132 142.71L199.373 156.676C200.357 159.22 203.256 162.159 206.442 165.156Z" fill="#3F3D56"/>
<path d="M209.112 179.235C208.409 179.545 207.641 179.692 206.868 179.665C206.096 179.639 205.34 179.439 204.661 179.082C203.983 178.725 203.399 178.221 202.957 177.61C202.516 176.998 202.227 176.295 202.116 175.558L200.833 167.092L205.316 164.764L211.005 171.946C211.459 172.52 211.774 173.185 211.925 173.892C212.077 174.599 212.061 175.33 211.879 176.03C211.697 176.731 211.354 177.382 210.875 177.937C210.396 178.492 209.794 178.936 209.112 179.235Z" fill="#FFB9B9"/>
<path d="M219.286 112.374L217.638 112.421L213.065 106.175C207.206 106.759 202.405 109.214 198.342 112.974L197.93 110.326C197.537 107.8 198.163 105.225 199.678 103.13C201.194 101.036 203.484 99.5812 206.078 99.0654H206.078C207.44 98.7945 208.845 98.7912 210.209 99.0556C211.573 99.32 212.867 99.8467 214.015 100.604C215.163 101.362 216.141 102.335 216.891 103.465C217.64 104.595 218.146 105.859 218.378 107.182L219.286 112.374Z" fill="#2F2E41"/>
<path d="M200.747 170.813C200.426 170.134 200.273 169.393 200.301 168.648C200.328 167.903 200.535 167.175 200.905 166.52C201.275 165.865 201.798 165.303 202.432 164.877C203.067 164.451 203.795 164.173 204.56 164.065L213.338 162.828L215.752 167.151L208.305 172.638C207.71 173.076 207.02 173.379 206.287 173.525C205.554 173.671 204.796 173.656 204.07 173.48C203.344 173.305 202.668 172.974 202.092 172.512C201.517 172.05 201.057 171.469 200.747 170.813Z" fill="#FFB9B9"/>
<path d="M242.251 163.112C233.9 163.737 224.781 166.249 215.235 169.812C215.116 167.079 214.089 164.455 212.304 162.329C220.974 160.127 228.842 157.543 233.683 153.517L230.752 132.235L237.131 125.252L238.231 125.805C239.145 126.263 239.949 126.901 240.59 127.678C241.232 128.455 241.697 129.353 241.956 130.315C244.649 140.419 245.845 150.099 245.023 159.21C245.129 160.074 244.907 160.945 244.397 161.663C243.887 162.38 243.125 162.895 242.251 163.112Z" fill="#3F3D56"/>
<path d="M74.1133 289.814C66.346 294.499 58.5787 294.497 50.8114 289.808C50.5655 289.662 50.3658 289.454 50.234 289.206C50.1022 288.958 50.0434 288.68 50.0638 288.403L52.4875 258.017H72.0906L74.8595 288.392C74.8834 288.672 74.8263 288.954 74.6946 289.205C74.5629 289.456 74.3617 289.667 74.1133 289.814Z" fill="#3F3D56"/>
<path d="M62.1986 261.798C67.6618 261.798 72.0905 260.26 72.0905 258.361C72.0905 256.463 67.6618 254.924 62.1986 254.924C56.7354 254.924 52.3066 256.463 52.3066 258.361C52.3066 260.26 56.7354 261.798 62.1986 261.798Z" fill="#3F3D56"/>
<path d="M69.952 257.201C64.7975 260.698 59.8077 260.698 54.9824 257.201V251.701H69.952V257.201Z" fill="#7EB685"/>
<path d="M62.4672 254.451C66.601 254.451 69.952 253.22 69.952 251.701C69.952 250.183 66.601 248.952 62.4672 248.952C58.3335 248.952 54.9824 250.183 54.9824 251.701C54.9824 253.22 58.3335 254.451 62.4672 254.451Z" fill="#7EB685"/>
<path d="M62.8236 251.701C63.2173 251.701 63.5365 251.547 63.5365 251.358C63.5365 251.168 63.2173 251.014 62.8236 251.014C62.4299 251.014 62.1108 251.168 62.1108 251.358C62.1108 251.547 62.4299 251.701 62.8236 251.701Z" fill="#E6E6E6"/>
<path d="M66.1896 251.701C66.5833 251.701 66.9025 251.547 66.9025 251.358C66.9025 251.168 66.5833 251.014 66.1896 251.014C65.7959 251.014 65.4768 251.168 65.4768 251.358C65.4768 251.547 65.7959 251.701 66.1896 251.701Z" fill="#E6E6E6"/>
<path d="M64.5066 252.513C64.9003 252.513 65.2195 252.359 65.2195 252.169C65.2195 251.979 64.9003 251.825 64.5066 251.825C64.1129 251.825 63.7938 251.979 63.7938 252.169C63.7938 252.359 64.1129 252.513 64.5066 252.513Z" fill="#E6E6E6"/>
<path d="M57.7746 252.513C58.1683 252.513 58.4875 252.359 58.4875 252.169C58.4875 251.979 58.1683 251.825 57.7746 251.825C57.381 251.825 57.0618 251.979 57.0618 252.169C57.0618 252.359 57.381 252.513 57.7746 252.513Z" fill="#E6E6E6"/>
<path d="M59.4577 251.701C59.8514 251.701 60.1705 251.547 60.1705 251.358C60.1705 251.168 59.8514 251.014 59.4577 251.014C59.064 251.014 58.7448 251.168 58.7448 251.358C58.7448 251.547 59.064 251.701 59.4577 251.701Z" fill="#E6E6E6"/>
<path d="M61.1407 252.919C61.5344 252.919 61.8535 252.765 61.8535 252.575C61.8535 252.385 61.5344 252.231 61.1407 252.231C60.747 252.231 60.4278 252.385 60.4278 252.575C60.4278 252.765 60.747 252.919 61.1407 252.919Z" fill="#E6E6E6"/>
<path d="M289.354 289.814C281.586 294.499 273.819 294.497 266.052 289.808C265.806 289.662 265.606 289.454 265.474 289.206C265.343 288.958 265.284 288.68 265.304 288.403L267.728 258.017H287.331L290.1 288.392C290.124 288.672 290.067 288.954 289.935 289.205C289.803 289.456 289.602 289.667 289.354 289.814Z" fill="#3F3D56"/>
<path d="M277.439 261.798C282.902 261.798 287.331 260.26 287.331 258.361C287.331 256.463 282.902 254.924 277.439 254.924C271.976 254.924 267.547 256.463 267.547 258.361C267.547 260.26 271.976 261.798 277.439 261.798Z" fill="#3F3D56"/>
<path d="M285.192 257.201C280.038 260.698 275.048 260.698 270.223 257.201V251.701H285.192V257.201Z" fill="#7EB685"/>
<path d="M277.708 254.451C281.841 254.451 285.192 253.22 285.192 251.701C285.192 250.183 281.841 248.952 277.708 248.952C273.574 248.952 270.223 250.183 270.223 251.701C270.223 253.22 273.574 254.451 277.708 254.451Z" fill="#7EB685"/>
<path d="M278.064 251.701C278.458 251.701 278.777 251.547 278.777 251.358C278.777 251.168 278.458 251.014 278.064 251.014C277.67 251.014 277.351 251.168 277.351 251.358C277.351 251.547 277.67 251.701 278.064 251.701Z" fill="#E6E6E6"/>
<path d="M281.43 251.701C281.824 251.701 282.143 251.547 282.143 251.358C282.143 251.168 281.824 251.014 281.43 251.014C281.036 251.014 280.717 251.168 280.717 251.358C280.717 251.547 281.036 251.701 281.43 251.701Z" fill="#E6E6E6"/>
<path d="M279.747 252.513C280.141 252.513 280.46 252.359 280.46 252.169C280.46 251.979 280.141 251.825 279.747 251.825C279.353 251.825 279.034 251.979 279.034 252.169C279.034 252.359 279.353 252.513 279.747 252.513Z" fill="#E6E6E6"/>
<path d="M273.015 252.513C273.409 252.513 273.728 252.359 273.728 252.169C273.728 251.979 273.409 251.825 273.015 251.825C272.621 251.825 272.302 251.979 272.302 252.169C272.302 252.359 272.621 252.513 273.015 252.513Z" fill="#E6E6E6"/>
<path d="M274.698 251.701C275.092 251.701 275.411 251.547 275.411 251.358C275.411 251.168 275.092 251.014 274.698 251.014C274.304 251.014 273.985 251.168 273.985 251.358C273.985 251.547 274.304 251.701 274.698 251.701Z" fill="#E6E6E6"/>
<path d="M276.381 252.919C276.775 252.919 277.094 252.765 277.094 252.575C277.094 252.385 276.775 252.231 276.381 252.231C275.987 252.231 275.668 252.385 275.668 252.575C275.668 252.765 275.987 252.919 276.381 252.919Z" fill="#E6E6E6"/>
</g>
<path d="M75.3906 337.219C75.3906 339.375 75.0469 341.245 74.3594 342.828C73.6823 344.401 72.7292 345.651 71.5 346.578L75.4062 349.625L72.8438 351.938L68 348.109C67.3646 348.245 66.6823 348.312 65.9531 348.312C64.1198 348.312 62.4792 347.865 61.0312 346.969C59.5938 346.062 58.4792 344.776 57.6875 343.109C56.9062 341.443 56.5104 339.521 56.5 337.344V336.062C56.5 333.844 56.8906 331.885 57.6719 330.188C58.4635 328.49 59.5729 327.193 61 326.297C62.4375 325.391 64.0781 324.938 65.9219 324.938C67.7969 324.938 69.4479 325.385 70.875 326.281C72.3125 327.167 73.4219 328.448 74.2031 330.125C74.9844 331.792 75.3802 333.734 75.3906 335.953V337.219ZM71.4219 336.031C71.4219 333.469 70.9427 331.526 69.9844 330.203C69.026 328.88 67.6719 328.219 65.9219 328.219C64.224 328.219 62.8906 328.891 61.9219 330.234C60.9635 331.568 60.474 333.453 60.4531 335.891V337.219C60.4531 339.677 60.9323 341.599 61.8906 342.984C62.8594 344.37 64.2135 345.062 65.9531 345.062C67.7135 345.062 69.0625 344.396 70 343.062C70.9479 341.729 71.4219 339.781 71.4219 337.219V336.031ZM89.2812 346.344C88.1667 347.656 86.5833 348.312 84.5312 348.312C82.6979 348.312 81.3073 347.776 80.3594 346.703C79.4219 345.63 78.9531 344.078 78.9531 342.047V331.094H82.75V342C82.75 344.146 83.6406 345.219 85.4219 345.219C87.2656 345.219 88.5104 344.557 89.1562 343.234V331.094H92.9531V348H89.375L89.2812 346.344ZM106.922 348C106.755 347.677 106.609 347.151 106.484 346.422C105.276 347.682 103.797 348.312 102.047 348.312C100.349 348.312 98.9635 347.828 97.8906 346.859C96.8177 345.891 96.2812 344.693 96.2812 343.266C96.2812 341.464 96.9479 340.083 98.2812 339.125C99.625 338.156 101.542 337.672 104.031 337.672H106.359V336.562C106.359 335.688 106.115 334.99 105.625 334.469C105.135 333.938 104.391 333.672 103.391 333.672C102.526 333.672 101.818 333.891 101.266 334.328C100.714 334.755 100.438 335.302 100.438 335.969H96.6406C96.6406 335.042 96.9479 334.177 97.5625 333.375C98.1771 332.562 99.0104 331.927 100.062 331.469C101.125 331.01 102.307 330.781 103.609 330.781C105.589 330.781 107.167 331.281 108.344 332.281C109.521 333.271 110.125 334.667 110.156 336.469V344.094C110.156 345.615 110.37 346.828 110.797 347.734V348H106.922ZM102.75 345.266C103.5 345.266 104.203 345.083 104.859 344.719C105.526 344.354 106.026 343.865 106.359 343.25V340.062H104.312C102.906 340.062 101.849 340.307 101.141 340.797C100.432 341.286 100.078 341.979 100.078 342.875C100.078 343.604 100.318 344.188 100.797 344.625C101.286 345.052 101.938 345.266 102.75 345.266ZM118.172 348H114.375V324H118.172V348ZM126.359 348H122.562V331.094H126.359V348ZM122.328 326.703C122.328 326.12 122.51 325.635 122.875 325.25C123.25 324.865 123.781 324.672 124.469 324.672C125.156 324.672 125.688 324.865 126.062 325.25C126.438 325.635 126.625 326.12 126.625 326.703C126.625 327.276 126.438 327.755 126.062 328.141C125.688 328.516 125.156 328.703 124.469 328.703C123.781 328.703 123.25 328.516 122.875 328.141C122.51 327.755 122.328 327.276 122.328 326.703ZM135.266 326.984V331.094H138.25V333.906H135.266V343.344C135.266 343.99 135.391 344.458 135.641 344.75C135.901 345.031 136.359 345.172 137.016 345.172C137.453 345.172 137.896 345.12 138.344 345.016V347.953C137.479 348.193 136.646 348.312 135.844 348.312C132.927 348.312 131.469 346.703 131.469 343.484V333.906H128.688V331.094H131.469V326.984H135.266ZM147.078 342.562L150.516 331.094H154.562L147.844 350.562C146.812 353.406 145.062 354.828 142.594 354.828C142.042 354.828 141.432 354.734 140.766 354.547V351.609L141.484 351.656C142.443 351.656 143.161 351.479 143.641 351.125C144.13 350.781 144.516 350.198 144.797 349.375L145.344 347.922L139.406 331.094H143.5L147.078 342.562ZM173.453 339.234H169.047V348H165.094V325.25H173.094C175.719 325.25 177.745 325.839 179.172 327.016C180.599 328.193 181.312 329.896 181.312 332.125C181.312 333.646 180.943 334.922 180.203 335.953C179.474 336.974 178.453 337.76 177.141 338.312L182.25 347.797V348H178.016L173.453 339.234ZM169.047 336.062H173.109C174.443 336.062 175.484 335.729 176.234 335.062C176.984 334.385 177.359 333.464 177.359 332.297C177.359 331.078 177.01 330.135 176.312 329.469C175.625 328.802 174.594 328.458 173.219 328.438H169.047V336.062ZM192.141 348.312C189.734 348.312 187.781 347.557 186.281 346.047C184.792 344.526 184.047 342.505 184.047 339.984V339.516C184.047 337.828 184.37 336.323 185.016 335C185.672 333.667 186.589 332.63 187.766 331.891C188.943 331.151 190.255 330.781 191.703 330.781C194.005 330.781 195.781 331.516 197.031 332.984C198.292 334.453 198.922 336.531 198.922 339.219V340.75H187.875C187.99 342.146 188.453 343.25 189.266 344.062C190.089 344.875 191.12 345.281 192.359 345.281C194.099 345.281 195.516 344.578 196.609 343.172L198.656 345.125C197.979 346.135 197.073 346.922 195.938 347.484C194.812 348.036 193.547 348.312 192.141 348.312ZM191.688 333.828C190.646 333.828 189.802 334.193 189.156 334.922C188.521 335.651 188.115 336.667 187.938 337.969H195.172V337.688C195.089 336.417 194.75 335.458 194.156 334.812C193.562 334.156 192.74 333.828 191.688 333.828ZM208.828 345.281C209.776 345.281 210.562 345.005 211.188 344.453C211.812 343.901 212.146 343.219 212.188 342.406H215.766C215.724 343.458 215.396 344.443 214.781 345.359C214.167 346.266 213.333 346.984 212.281 347.516C211.229 348.047 210.094 348.312 208.875 348.312C206.51 348.312 204.635 347.547 203.25 346.016C201.865 344.484 201.172 342.37 201.172 339.672V339.281C201.172 336.708 201.859 334.651 203.234 333.109C204.609 331.557 206.484 330.781 208.859 330.781C210.87 330.781 212.505 331.37 213.766 332.547C215.036 333.714 215.703 335.25 215.766 337.156H212.188C212.146 336.188 211.812 335.391 211.188 334.766C210.573 334.141 209.786 333.828 208.828 333.828C207.599 333.828 206.651 334.276 205.984 335.172C205.318 336.057 204.979 337.406 204.969 339.219V339.828C204.969 341.661 205.297 343.031 205.953 343.938C206.62 344.833 207.578 345.281 208.828 345.281ZM222.672 348H218.875V331.094H222.672V348ZM218.641 326.703C218.641 326.12 218.823 325.635 219.188 325.25C219.562 324.865 220.094 324.672 220.781 324.672C221.469 324.672 222 324.865 222.375 325.25C222.75 325.635 222.938 326.12 222.938 326.703C222.938 327.276 222.75 327.755 222.375 328.141C222 328.516 221.469 328.703 220.781 328.703C220.094 328.703 219.562 328.516 219.188 328.141C218.823 327.755 218.641 327.276 218.641 326.703ZM241.625 339.719C241.625 342.333 241.031 344.422 239.844 345.984C238.656 347.536 237.062 348.312 235.062 348.312C233.208 348.312 231.724 347.703 230.609 346.484V354.5H226.812V331.094H230.312L230.469 332.812C231.583 331.458 233.099 330.781 235.016 330.781C237.078 330.781 238.693 331.552 239.859 333.094C241.036 334.625 241.625 336.755 241.625 339.484V339.719ZM237.844 339.391C237.844 337.703 237.505 336.365 236.828 335.375C236.161 334.385 235.203 333.891 233.953 333.891C232.401 333.891 231.286 334.531 230.609 335.812V343.312C231.297 344.625 232.422 345.281 233.984 345.281C235.193 345.281 236.135 344.797 236.812 343.828C237.5 342.849 237.844 341.37 237.844 339.391ZM252.297 348.312C249.891 348.312 247.938 347.557 246.438 346.047C244.948 344.526 244.203 342.505 244.203 339.984V339.516C244.203 337.828 244.526 336.323 245.172 335C245.828 333.667 246.745 332.63 247.922 331.891C249.099 331.151 250.411 330.781 251.859 330.781C254.161 330.781 255.938 331.516 257.188 332.984C258.448 334.453 259.078 336.531 259.078 339.219V340.75H248.031C248.146 342.146 248.609 343.25 249.422 344.062C250.245 344.875 251.276 345.281 252.516 345.281C254.255 345.281 255.672 344.578 256.766 343.172L258.812 345.125C258.135 346.135 257.229 346.922 256.094 347.484C254.969 348.036 253.703 348.312 252.297 348.312ZM251.844 333.828C250.802 333.828 249.958 334.193 249.312 334.922C248.677 335.651 248.271 336.667 248.094 337.969H255.328V337.688C255.245 336.417 254.906 335.458 254.312 334.812C253.719 334.156 252.896 333.828 251.844 333.828ZM271.516 343.406C271.516 342.729 271.234 342.214 270.672 341.859C270.12 341.505 269.198 341.193 267.906 340.922C266.615 340.651 265.536 340.307 264.672 339.891C262.776 338.974 261.828 337.646 261.828 335.906C261.828 334.448 262.443 333.229 263.672 332.25C264.901 331.271 266.464 330.781 268.359 330.781C270.38 330.781 272.01 331.281 273.25 332.281C274.5 333.281 275.125 334.578 275.125 336.172H271.328C271.328 335.443 271.057 334.839 270.516 334.359C269.974 333.87 269.255 333.625 268.359 333.625C267.526 333.625 266.844 333.818 266.312 334.203C265.792 334.589 265.531 335.104 265.531 335.75C265.531 336.333 265.776 336.786 266.266 337.109C266.755 337.432 267.745 337.76 269.234 338.094C270.724 338.417 271.891 338.807 272.734 339.266C273.589 339.714 274.219 340.255 274.625 340.891C275.042 341.526 275.25 342.297 275.25 343.203C275.25 344.724 274.62 345.958 273.359 346.906C272.099 347.844 270.448 348.312 268.406 348.312C267.021 348.312 265.786 348.062 264.703 347.562C263.62 347.062 262.776 346.375 262.172 345.5C261.568 344.625 261.266 343.682 261.266 342.672H264.953C265.005 343.568 265.344 344.26 265.969 344.75C266.594 345.229 267.422 345.469 268.453 345.469C269.453 345.469 270.214 345.281 270.734 344.906C271.255 344.521 271.516 344.021 271.516 343.406Z" fill="black"/>
<defs>
<clipPath id="clip0_1_1242">
<rect width="259" height="259" fill="white" transform="translate(40 40)"/>
</clipPath>
</defs>
</svg>
