<svg width="339" height="396" viewBox="0 0 339 396" fill="none" xmlns="http://www.w3.org/2000/svg">
<rect width="339" height="396" rx="30" fill="#DEEDE0"/>
<g clip-path="url(#clip0_1_1244)">
<path d="M257.704 299C280.511 299 299 296.942 299 294.402C299 291.863 280.511 289.805 257.704 289.805C234.897 289.805 216.408 291.863 216.408 294.402C216.408 296.942 234.897 299 257.704 299Z" fill="#E6E6E6"/>
<path d="M82.0625 111.333C82.0757 106.654 79.38 102.826 76.2158 102.826H46.8541C43.7399 102.826 41.0493 106.591 41.0128 111.196C41.0015 112.505 41.1959 113.799 41.5807 114.978C41.9655 116.157 42.5301 117.188 43.2302 117.989C43.4096 118.186 43.5508 118.45 43.6397 118.754C43.7285 119.058 43.7619 119.391 43.7365 119.719C43.7025 120.093 43.6854 120.469 43.6854 120.845V150.88C43.6854 151.986 43.8327 153.081 44.1187 154.102C44.4048 155.123 44.8241 156.051 45.3527 156.833C45.8814 157.615 46.5089 158.235 47.1996 158.658C47.8902 159.081 48.6305 159.299 49.378 159.299H73.506C75.0157 159.299 76.4637 158.412 77.5312 156.833C78.5988 155.254 79.1985 153.113 79.1985 150.88V120.845C79.1986 120.516 79.1856 120.187 79.1597 119.859C79.1367 119.535 79.1728 119.208 79.2641 118.912C79.3555 118.615 79.4988 118.36 79.6792 118.173C80.4138 117.393 81.0129 116.366 81.4272 115.177C81.8415 113.988 82.0592 112.671 82.0625 111.333Z" fill="#3F3D56"/>
<path d="M80.7909 110.509C80.6445 108.88 80.1003 107.386 79.2609 106.309C78.4214 105.232 77.3447 104.646 76.2334 104.662H46.8453C45.8064 104.648 44.7954 105.159 43.9793 106.109C43.1632 107.06 42.5907 108.394 42.3565 109.891C42.156 111.267 42.2559 112.701 42.642 113.988C43.028 115.274 43.6801 116.346 44.5045 117.049C44.7425 117.25 44.9285 117.563 45.0332 117.937C45.1379 118.312 45.1555 118.728 45.083 119.119C44.9787 119.682 44.9261 120.263 44.9265 120.847V150.879C44.9266 152.414 45.2891 153.9 45.9515 155.082C46.6138 156.263 47.5344 157.066 48.5542 157.351C48.8262 157.426 49.1023 157.463 49.379 157.464H73.5069C73.9142 157.465 74.3197 157.382 74.7117 157.218C75.6457 156.829 76.4683 156 77.0542 154.856C77.6401 153.712 77.9573 152.317 77.9575 150.882V120.844C77.9576 120.297 77.9114 119.753 77.82 119.223C77.7951 119.076 77.7823 118.926 77.7818 118.774C77.782 118.442 77.8432 118.117 77.9589 117.832C78.0746 117.548 78.2404 117.315 78.4386 117.159L78.4406 117.156C79.2401 116.529 79.8926 115.558 80.3121 114.371C80.7316 113.185 80.8985 111.839 80.7909 110.509Z" fill="#7EB685"/>
<path opacity="0.2" d="M77.9575 123.721V120.897H74.7117V104.662H72.8024V120.897H62.5876V104.662H60.6783V120.897H50.4635V104.662H48.5542V120.897H44.9265V123.721H48.5542V132.192H44.9265V135.016H48.5542V143.487H44.9265V146.31H48.5542V157.351C48.8262 157.426 49.1023 157.463 49.379 157.464H50.4635V146.31H60.6783V157.464H62.5876V146.31H72.8024V157.464H73.5069C73.9143 157.464 74.3197 157.382 74.7117 157.218V146.31H77.9575V143.487H74.7117V135.016H77.9575V132.192H74.7117V123.721H77.9575ZM50.4635 123.721H60.6783V132.192H50.4635V123.721ZM50.4635 143.487V135.016H60.6783V143.487H50.4635ZM72.8024 143.487H62.5876V135.016H72.8024V143.487ZM72.8024 132.192H62.5876V123.721H72.8024V132.192Z" fill="black"/>
<path d="M81.9287 40C81.9287 43.9602 81.4013 47.8815 80.3765 51.5403C79.3518 55.199 77.8498 58.5234 75.9563 61.3236C74.0628 64.1239 71.8148 66.3452 69.3409 67.8607C66.8669 69.3761 64.2153 70.1562 61.5375 70.1562C58.8597 70.1562 56.2081 69.3761 53.7341 67.8607C51.2601 66.3452 49.0122 64.1239 47.1187 61.3236C45.2252 58.5234 43.7232 55.199 42.6984 51.5403C41.6737 47.8815 41.1462 43.9602 41.1462 40H81.9287Z" fill="#7EB685"/>
<path d="M48.6271 45.3532C48.6271 46.1416 48.438 46.7807 48.2048 46.7807C47.9715 46.7807 47.7825 46.1416 47.7825 45.3532C47.8081 44.8197 47.9572 44.3156 48.2048 43.9257C48.4523 44.3156 48.6014 44.8197 48.6271 45.3532Z" fill="#3F3D56"/>
<path d="M69.9835 50.3495C69.9835 51.1379 69.7944 51.777 69.5612 51.777C69.328 51.777 69.1389 51.1379 69.1389 50.3495C69.1646 49.816 69.3137 49.3119 69.5612 48.922C69.8088 49.3119 69.9579 49.816 69.9835 50.3495Z" fill="#3F3D56"/>
<path d="M54.298 47.4944C54.298 48.2828 54.1089 48.9219 53.8757 48.9219C53.6424 48.9219 53.4534 48.2828 53.4534 47.4944C53.479 46.9609 53.6281 46.4568 53.8757 46.0669C54.1232 46.4568 54.2723 46.9609 54.298 47.4944Z" fill="#3F3D56"/>
<path d="M62.744 58.7361C62.744 59.5245 62.5549 60.1636 62.3217 60.1636C62.0885 60.1636 61.8994 59.5245 61.8994 58.7361C61.925 58.2026 62.0742 57.6985 62.3217 57.3086C62.5692 57.6985 62.7184 58.2026 62.744 58.7361Z" fill="#3F3D56"/>
<path d="M53.6947 57.3085C53.6947 58.0969 53.5056 58.736 53.2724 58.736C53.0392 58.736 52.8501 58.0969 52.8501 57.3085C52.8757 56.775 53.0249 56.2709 53.2724 55.881C53.5199 56.2709 53.6691 56.775 53.6947 57.3085Z" fill="#3F3D56"/>
<path d="M74.8099 43.9257C74.8099 44.7141 74.6209 45.3532 74.3876 45.3532C74.1544 45.3532 73.9653 44.7141 73.9653 43.9257C73.991 43.3922 74.1401 42.8881 74.3876 42.4982C74.6352 42.8881 74.7843 43.3922 74.8099 43.9257Z" fill="#3F3D56"/>
<path d="M67.0878 61.5911C67.0878 62.3795 66.8987 63.0186 66.6655 63.0186C66.4322 63.0186 66.2432 62.3795 66.2432 61.5911C66.2688 61.0576 66.4179 60.5535 66.6655 60.1636C66.913 60.5535 67.0621 61.0576 67.0878 61.5911Z" fill="#3F3D56"/>
<path d="M61.5375 71.8513C55.8274 71.8418 50.353 68.4829 46.3153 62.5117C42.2777 56.5405 40.0065 48.4446 40 40H42.2925C42.2925 43.7375 42.7903 47.4385 43.7574 50.8915C44.7246 54.3446 46.1422 57.4821 47.9292 60.125C49.7163 62.7678 51.8378 64.8642 54.1727 66.2945C56.5076 67.7248 59.0102 68.461 61.5375 68.461C64.0648 68.461 66.5673 67.7248 68.9022 66.2945C71.2371 64.8642 73.3587 62.7678 75.1457 60.125C76.9328 57.4821 78.3504 54.3446 79.3175 50.8915C80.2847 47.4385 80.7825 43.7375 80.7825 40H83.075C83.0685 48.4446 80.7973 56.5405 76.7596 62.5117C72.722 68.4829 67.2476 71.8418 61.5375 71.8513Z" fill="#3F3D56"/>
<path d="M111.147 50.9348H104.397V60.9166H111.147V50.9348Z" fill="#3F3D56"/>
<path d="M177.293 55.4265H122.958V56.4247H177.293V55.4265Z" fill="#3F3D56"/>
<path d="M111.147 126.072H104.397V136.054H111.147V126.072Z" fill="#3F3D56"/>
<path d="M177.293 130.563H122.958V131.562H177.293V130.563Z" fill="#3F3D56"/>
<path d="M111.147 200.686H104.397V210.668H111.147V200.686Z" fill="#3F3D56"/>
<path d="M177.293 205.178H122.958V206.176H177.293V205.178Z" fill="#3F3D56"/>
<path d="M253.396 108.547L244.774 118.597L226.504 109.102C226.504 109.102 220.293 98.769 216.78 106.465C215.577 109.101 223.457 113.97 224.2 114.423C226.058 115.554 243.861 129.998 245.605 128.103C247.35 126.208 257.165 116.624 257.165 116.624L253.396 108.547Z" fill="#A0616A"/>
<path d="M282.827 91.4026C274.656 86.8869 266.882 84.7504 260.58 91.4026V69.9333C260.58 67.773 260.868 65.6338 261.427 63.6379C261.986 61.6421 262.805 59.8286 263.838 58.301C264.871 56.7735 266.097 55.5617 267.447 54.735C268.796 53.9083 270.243 53.4828 271.704 53.4828H271.704C273.164 53.4828 274.611 53.9083 275.96 54.735C277.31 55.5617 278.536 56.7735 279.569 58.301C280.602 59.8286 281.421 61.6421 281.981 63.638C282.54 65.6338 282.827 67.773 282.827 69.9333L282.827 91.4026Z" fill="#2F2E41"/>
<path d="M262.295 138.303L261.627 145.215C261.627 145.215 259.958 152.621 261.627 166.446L234.751 274.823L254.616 283.217L264.465 223.967L278.32 178.79L276.985 230.139L269.974 284.945L290.673 283.71L296.705 189.735C297.68 174.883 295.938 159.917 291.661 146.402C289.988 141.146 288.189 137.004 286.556 136.403C281.659 134.6 262.295 138.303 262.295 138.303Z" fill="#2F2E41"/>
<path d="M237.255 274.082L230.411 284.945C230.411 284.945 217.223 295.067 226.571 296.301C235.919 297.535 239.091 292.104 239.091 292.104C239.091 292.104 250.776 290.87 250.609 288.401C250.442 285.932 249.608 277.785 249.608 277.785L237.255 274.082Z" fill="#2F2E41"/>
<path d="M274.397 276.702V284.355C274.397 284.355 274.564 287.564 274.397 288.304C274.23 289.045 271.726 298.179 280.073 296.204C288.419 294.229 285.081 286.576 285.081 286.576L283.078 275.467L274.397 276.702Z" fill="#2F2E41"/>
<path d="M271.601 84.9784C276.234 84.9784 279.989 79.4243 279.989 72.5731C279.989 65.7218 276.234 60.1677 271.601 60.1677C266.968 60.1677 263.213 65.7218 263.213 72.5731C263.213 79.4243 266.968 84.9784 271.601 84.9784Z" fill="#A0616A"/>
<path d="M277.402 79.4237C277.402 79.4237 276.233 95.7173 277.402 98.6797C278.571 101.642 265.55 95.7173 265.55 95.7173C265.55 95.7173 268.388 84.608 267.386 80.1643C266.384 75.7206 277.402 79.4237 277.402 79.4237Z" fill="#A0616A"/>
<path d="M284.079 126.329L286.75 137.192L261.877 141.389C261.877 141.389 259.206 140.648 259.206 137.439C259.206 134.229 256.369 122.873 256.369 122.873C256.369 122.873 249.418 114.542 246.08 112.32C244.869 111.516 246.68 111.848 247.698 108.431C248.004 107.404 248.369 106.32 248.768 105.222C249.094 104.321 249.444 103.407 249.803 102.506C250.239 101.408 250.688 100.326 251.124 99.2969C252.442 96.1839 253.646 93.567 254.031 92.5079C255.2 89.2986 266.186 89.0122 266.186 89.0122C269.327 91.9352 278.404 92.5079 278.404 92.5079C278.404 92.5079 284.647 96.3715 287.248 99.2969C287.436 99.5067 284.079 126.329 284.079 126.329Z" fill="#E6E6E6"/>
<path d="M278.679 57.6809V57.3863L278.443 57.4057C277.098 55.8912 275.537 54.8494 273.88 54.3596C272.222 53.8697 270.511 53.9446 268.876 54.5785C270.443 55.1911 271.901 56.3048 273.145 57.841L265.105 58.5016L261.711 69.6544H264.008L265.859 64.6356V69.6544H273.627L274.155 65.7509L275.621 69.6544H277.147C277.157 69.9328 277.171 70.2091 277.171 70.4909L275.663 91.9602L282.827 87.4991V70.4909C282.829 68.0326 282.457 65.6053 281.739 63.3881C281.021 61.171 279.975 59.2206 278.679 57.6809Z" fill="#2F2E41"/>
<path d="M289.922 114.479L289.421 133.982L288.086 171.754C288.086 171.754 289.922 188.047 285.248 187.8C280.574 187.554 284.079 168.544 284.079 168.544L282.744 138.673L284.079 117.689L289.922 114.479Z" fill="#A0616A"/>
<path d="M291.257 125.095C291.257 127.317 282.827 126.7 282.827 126.7L278.404 92.5079C278.404 92.5079 284.647 96.3715 287.248 99.2969C287.86 100.236 288.36 101.321 288.728 102.506C288.927 103.299 289.116 104.217 289.294 105.222C289.471 106.219 289.636 107.303 289.792 108.431C290.52 113.934 291.01 119.5 291.257 125.095Z" fill="#E6E6E6"/>
<path d="M61.3105 204.412L48.5329 202.455C48.6311 201.452 48.5557 200.428 48.3138 199.479C48.0719 198.531 47.6713 197.688 47.1496 197.03C46.6278 196.373 46.0018 195.921 45.3301 195.718C44.6584 195.516 43.9629 195.568 43.3086 195.87C42.6542 196.172 42.0623 196.715 41.5882 197.447C41.1141 198.18 40.7732 199.078 40.5974 200.058C40.4216 201.038 40.4166 202.068 40.5829 203.051C40.7492 204.035 41.0814 204.94 41.5484 205.682C41.0739 206.44 40.7397 207.366 40.5781 208.371C40.4165 209.376 40.433 210.425 40.626 211.418C40.8189 212.411 41.1818 213.313 41.6795 214.037C42.1773 214.762 42.793 215.284 43.4672 215.554C44.1413 215.823 44.8511 215.831 45.5279 215.576C46.2047 215.321 46.8255 214.812 47.3304 214.099C47.8353 213.385 48.2071 212.491 48.4099 211.502C48.6126 210.514 48.6395 209.465 48.4879 208.457L61.3105 206.714V204.412Z" fill="#CCCCCC"/>
<path d="M74.304 217.399C79.3271 219.226 84.3874 213.957 84.6493 206.317C84.6565 206.105 84.6602 205.892 84.6602 205.677C84.6602 205.463 84.6566 205.249 84.6493 205.038C84.3874 197.398 79.3271 192.129 74.304 193.955L57.2632 200.152C56.7723 200.152 56.2861 200.294 55.8324 200.571C55.3787 200.849 54.9665 201.256 54.6192 201.769C54.2719 202.282 53.9964 202.891 53.8084 203.562C53.6204 204.232 53.5237 204.951 53.5237 205.677C53.5237 206.403 53.6204 207.122 53.8084 207.793C53.9964 208.464 54.2719 209.073 54.6192 209.586C54.9665 210.099 55.3787 210.506 55.8324 210.783C56.2861 211.061 56.7723 211.203 57.2632 211.202L74.304 217.399Z" fill="#7EB685"/>
</g>
<path d="M47.0312 344.844H59.1875V348H42.25V345.438L54.0156 328.438H42.3281V325.25H58.8125V327.75L47.0312 344.844ZM69.3281 348.312C66.9219 348.312 64.9688 347.557 63.4688 346.047C61.9792 344.526 61.2344 342.505 61.2344 339.984V339.516C61.2344 337.828 61.5573 336.323 62.2031 335C62.8594 333.667 63.776 332.63 64.9531 331.891C66.1302 331.151 67.4427 330.781 68.8906 330.781C71.1927 330.781 72.9688 331.516 74.2188 332.984C75.4792 334.453 76.1094 336.531 76.1094 339.219V340.75H65.0625C65.1771 342.146 65.6406 343.25 66.4531 344.062C67.276 344.875 68.3073 345.281 69.5469 345.281C71.2865 345.281 72.7031 344.578 73.7969 343.172L75.8438 345.125C75.1667 346.135 74.2604 346.922 73.125 347.484C72 348.036 70.7344 348.312 69.3281 348.312ZM68.875 333.828C67.8333 333.828 66.9896 334.193 66.3438 334.922C65.7083 335.651 65.3021 336.667 65.125 337.969H72.3594V337.688C72.276 336.417 71.9375 335.458 71.3438 334.812C70.75 334.156 69.9271 333.828 68.875 333.828ZM87.9219 334.562C87.4219 334.479 86.9062 334.438 86.375 334.438C84.6354 334.438 83.4635 335.104 82.8594 336.438V348H79.0625V331.094H82.6875L82.7812 332.984C83.6979 331.516 84.9688 330.781 86.5938 330.781C87.1354 330.781 87.5833 330.854 87.9375 331L87.9219 334.562ZM89.0469 339.391C89.0469 337.734 89.375 336.245 90.0312 334.922C90.6875 333.589 91.6094 332.568 92.7969 331.859C93.9844 331.141 95.349 330.781 96.8906 330.781C99.1719 330.781 101.021 331.516 102.438 332.984C103.865 334.453 104.635 336.401 104.75 338.828L104.766 339.719C104.766 341.385 104.443 342.875 103.797 344.188C103.161 345.5 102.245 346.516 101.047 347.234C99.8594 347.953 98.4844 348.312 96.9219 348.312C94.5365 348.312 92.625 347.521 91.1875 345.938C89.7604 344.344 89.0469 342.224 89.0469 339.578V339.391ZM92.8438 339.719C92.8438 341.458 93.2031 342.823 93.9219 343.812C94.6406 344.792 95.6406 345.281 96.9219 345.281C98.2031 345.281 99.1979 344.781 99.9062 343.781C100.625 342.781 100.984 341.318 100.984 339.391C100.984 337.682 100.615 336.328 99.875 335.328C99.1458 334.328 98.151 333.828 96.8906 333.828C95.651 333.828 94.6667 334.323 93.9375 335.312C93.2083 336.292 92.8438 337.76 92.8438 339.719ZM129.422 338.359H120.266V348H116.312V325.25H130.766V328.438H120.266V335.203H129.422V338.359ZM132.484 339.391C132.484 337.734 132.812 336.245 133.469 334.922C134.125 333.589 135.047 332.568 136.234 331.859C137.422 331.141 138.786 330.781 140.328 330.781C142.609 330.781 144.458 331.516 145.875 332.984C147.302 334.453 148.073 336.401 148.188 338.828L148.203 339.719C148.203 341.385 147.88 342.875 147.234 344.188C146.599 345.5 145.682 346.516 144.484 347.234C143.297 347.953 141.922 348.312 140.359 348.312C137.974 348.312 136.062 347.521 134.625 345.938C133.198 344.344 132.484 342.224 132.484 339.578V339.391ZM136.281 339.719C136.281 341.458 136.641 342.823 137.359 343.812C138.078 344.792 139.078 345.281 140.359 345.281C141.641 345.281 142.635 344.781 143.344 343.781C144.062 342.781 144.422 341.318 144.422 339.391C144.422 337.682 144.052 336.328 143.312 335.328C142.583 334.328 141.589 333.828 140.328 333.828C139.089 333.828 138.104 334.323 137.375 335.312C136.646 336.292 136.281 337.76 136.281 339.719ZM150.703 339.391C150.703 337.734 151.031 336.245 151.688 334.922C152.344 333.589 153.266 332.568 154.453 331.859C155.641 331.141 157.005 330.781 158.547 330.781C160.828 330.781 162.677 331.516 164.094 332.984C165.521 334.453 166.292 336.401 166.406 338.828L166.422 339.719C166.422 341.385 166.099 342.875 165.453 344.188C164.818 345.5 163.901 346.516 162.703 347.234C161.516 347.953 160.141 348.312 158.578 348.312C156.193 348.312 154.281 347.521 152.844 345.938C151.417 344.344 150.703 342.224 150.703 339.578V339.391ZM154.5 339.719C154.5 341.458 154.859 342.823 155.578 343.812C156.297 344.792 157.297 345.281 158.578 345.281C159.859 345.281 160.854 344.781 161.562 343.781C162.281 342.781 162.641 341.318 162.641 339.391C162.641 337.682 162.271 336.328 161.531 335.328C160.802 334.328 159.807 333.828 158.547 333.828C157.307 333.828 156.323 334.323 155.594 335.312C154.865 336.292 154.5 337.76 154.5 339.719ZM168.922 339.422C168.922 336.818 169.526 334.729 170.734 333.156C171.943 331.573 173.562 330.781 175.594 330.781C177.385 330.781 178.833 331.406 179.938 332.656V324H183.734V348H180.297L180.109 346.25C178.974 347.625 177.458 348.312 175.562 348.312C173.583 348.312 171.979 347.516 170.75 345.922C169.531 344.328 168.922 342.161 168.922 339.422ZM172.719 339.75C172.719 341.469 173.047 342.812 173.703 343.781C174.37 344.74 175.312 345.219 176.531 345.219C178.083 345.219 179.219 344.526 179.938 343.141V335.922C179.24 334.568 178.115 333.891 176.562 333.891C175.333 333.891 174.385 334.38 173.719 335.359C173.052 336.328 172.719 337.792 172.719 339.75ZM213.875 342.375L217.375 325.25H221.297L216.047 348H212.266L207.938 331.391L203.516 348H199.719L194.469 325.25H198.391L201.922 342.344L206.266 325.25H209.578L213.875 342.375ZM233.391 348C233.224 347.677 233.078 347.151 232.953 346.422C231.745 347.682 230.266 348.312 228.516 348.312C226.818 348.312 225.432 347.828 224.359 346.859C223.286 345.891 222.75 344.693 222.75 343.266C222.75 341.464 223.417 340.083 224.75 339.125C226.094 338.156 228.01 337.672 230.5 337.672H232.828V336.562C232.828 335.688 232.583 334.99 232.094 334.469C231.604 333.938 230.859 333.672 229.859 333.672C228.995 333.672 228.286 333.891 227.734 334.328C227.182 334.755 226.906 335.302 226.906 335.969H223.109C223.109 335.042 223.417 334.177 224.031 333.375C224.646 332.562 225.479 331.927 226.531 331.469C227.594 331.01 228.776 330.781 230.078 330.781C232.057 330.781 233.635 331.281 234.812 332.281C235.99 333.271 236.594 334.667 236.625 336.469V344.094C236.625 345.615 236.839 346.828 237.266 347.734V348H233.391ZM229.219 345.266C229.969 345.266 230.672 345.083 231.328 344.719C231.995 344.354 232.495 343.865 232.828 343.25V340.062H230.781C229.375 340.062 228.318 340.307 227.609 340.797C226.901 341.286 226.547 341.979 226.547 342.875C226.547 343.604 226.786 344.188 227.266 344.625C227.755 345.052 228.406 345.266 229.219 345.266ZM250.078 343.406C250.078 342.729 249.797 342.214 249.234 341.859C248.682 341.505 247.76 341.193 246.469 340.922C245.177 340.651 244.099 340.307 243.234 339.891C241.339 338.974 240.391 337.646 240.391 335.906C240.391 334.448 241.005 333.229 242.234 332.25C243.464 331.271 245.026 330.781 246.922 330.781C248.943 330.781 250.573 331.281 251.812 332.281C253.062 333.281 253.688 334.578 253.688 336.172H249.891C249.891 335.443 249.62 334.839 249.078 334.359C248.536 333.87 247.818 333.625 246.922 333.625C246.089 333.625 245.406 333.818 244.875 334.203C244.354 334.589 244.094 335.104 244.094 335.75C244.094 336.333 244.339 336.786 244.828 337.109C245.318 337.432 246.307 337.76 247.797 338.094C249.286 338.417 250.453 338.807 251.297 339.266C252.151 339.714 252.781 340.255 253.188 340.891C253.604 341.526 253.812 342.297 253.812 343.203C253.812 344.724 253.182 345.958 251.922 346.906C250.661 347.844 249.01 348.312 246.969 348.312C245.583 348.312 244.349 348.062 243.266 347.562C242.182 347.062 241.339 346.375 240.734 345.5C240.13 344.625 239.828 343.682 239.828 342.672H243.516C243.568 343.568 243.906 344.26 244.531 344.75C245.156 345.229 245.984 345.469 247.016 345.469C248.016 345.469 248.776 345.281 249.297 344.906C249.818 344.521 250.078 344.021 250.078 343.406ZM261.891 326.984V331.094H264.875V333.906H261.891V343.344C261.891 343.99 262.016 344.458 262.266 344.75C262.526 345.031 262.984 345.172 263.641 345.172C264.078 345.172 264.521 345.12 264.969 345.016V347.953C264.104 348.193 263.271 348.312 262.469 348.312C259.552 348.312 258.094 346.703 258.094 343.484V333.906H255.312V331.094H258.094V326.984H261.891ZM275.234 348.312C272.828 348.312 270.875 347.557 269.375 346.047C267.885 344.526 267.141 342.505 267.141 339.984V339.516C267.141 337.828 267.464 336.323 268.109 335C268.766 333.667 269.682 332.63 270.859 331.891C272.036 331.151 273.349 330.781 274.797 330.781C277.099 330.781 278.875 331.516 280.125 332.984C281.385 334.453 282.016 336.531 282.016 339.219V340.75H270.969C271.083 342.146 271.547 343.25 272.359 344.062C273.182 344.875 274.214 345.281 275.453 345.281C277.193 345.281 278.609 344.578 279.703 343.172L281.75 345.125C281.073 346.135 280.167 346.922 279.031 347.484C277.906 348.036 276.641 348.312 275.234 348.312ZM274.781 333.828C273.74 333.828 272.896 334.193 272.25 334.922C271.615 335.651 271.208 336.667 271.031 337.969H278.266V337.688C278.182 336.417 277.844 335.458 277.25 334.812C276.656 334.156 275.833 333.828 274.781 333.828Z" fill="black"/>
<defs>
<clipPath id="clip0_1_1244">
<rect width="259" height="259" fill="white" transform="translate(40 40)"/>
</clipPath>
</defs>
</svg>
