<svg width="429" height="70" viewBox="0 0 429 70" fill="none" xmlns="http://www.w3.org/2000/svg">
<rect width="429" height="70" rx="15" fill="#7EB685"/>
<path d="M70.3418 41.5H67.4121V35.4062H61.6992V41.5H58.7695V27.2812H61.6992V33.043H67.4121V27.2812H70.3418V41.5ZM72.2852 36.1191C72.2852 35.071 72.487 34.1367 72.8906 33.3164C73.2943 32.4961 73.8737 31.8613 74.6289 31.4121C75.3906 30.9629 76.2728 30.7383 77.2754 30.7383C78.7012 30.7383 79.8633 31.1745 80.7617 32.0469C81.6667 32.9193 82.1712 34.1042 82.2754 35.6016L82.2949 36.3242C82.2949 37.9453 81.8424 39.2474 80.9375 40.2305C80.0326 41.207 78.8184 41.6953 77.2949 41.6953C75.7715 41.6953 74.554 41.207 73.6426 40.2305C72.7376 39.2539 72.2852 37.9258 72.2852 36.2461V36.1191ZM75.1074 36.3242C75.1074 37.3268 75.2962 38.0951 75.6738 38.6289C76.0514 39.1562 76.5918 39.4199 77.2949 39.4199C77.9785 39.4199 78.5124 39.1595 78.8965 38.6387C79.2806 38.1113 79.4727 37.2715 79.4727 36.1191C79.4727 35.1361 79.2806 34.3743 78.8965 33.834C78.5124 33.2936 77.972 33.0234 77.2754 33.0234C76.5853 33.0234 76.0514 33.2936 75.6738 33.834C75.2962 34.3678 75.1074 35.1979 75.1074 36.3242ZM86.6797 30.9336L86.7676 32.1152C87.5163 31.1973 88.5286 30.7383 89.8047 30.7383C91.1654 30.7383 92.0996 31.2754 92.6074 32.3496C93.3496 31.2754 94.4076 30.7383 95.7812 30.7383C96.9271 30.7383 97.7799 31.0736 98.3398 31.7441C98.8997 32.4082 99.1797 33.4108 99.1797 34.752V41.5H96.3477V34.7617C96.3477 34.1628 96.2305 33.7266 95.9961 33.4531C95.7617 33.1732 95.3483 33.0332 94.7559 33.0332C93.9095 33.0332 93.3236 33.4368 92.998 34.2441L93.0078 41.5H90.1855V34.7715C90.1855 34.1595 90.0651 33.7168 89.8242 33.4434C89.5833 33.1699 89.1732 33.0332 88.5938 33.0332C87.793 33.0332 87.2135 33.3652 86.8555 34.0293V41.5H84.0332V30.9336H86.6797ZM106.221 41.6953C104.671 41.6953 103.408 41.2201 102.432 40.2695C101.462 39.319 100.977 38.0527 100.977 36.4707V36.1973C100.977 35.1361 101.182 34.1888 101.592 33.3555C102.002 32.5156 102.581 31.8711 103.33 31.4219C104.085 30.9661 104.945 30.7383 105.908 30.7383C107.354 30.7383 108.49 31.194 109.316 32.1055C110.15 33.0169 110.566 34.3092 110.566 35.9824V37.1348H103.838C103.929 37.8249 104.202 38.3783 104.658 38.7949C105.12 39.2116 105.703 39.4199 106.406 39.4199C107.493 39.4199 108.343 39.026 108.955 38.2383L110.342 39.791C109.919 40.39 109.346 40.8587 108.623 41.1973C107.9 41.5293 107.1 41.6953 106.221 41.6953ZM105.898 33.0234C105.339 33.0234 104.883 33.2122 104.531 33.5898C104.186 33.9674 103.965 34.5078 103.867 35.2109H107.793V34.9863C107.78 34.3613 107.611 33.8796 107.285 33.541C106.96 33.196 106.497 33.0234 105.898 33.0234Z" fill="white"/>
<path d="M57.5 43.4531H111.084V44.4297H57.5V43.4531Z" fill="white"/>
<line x1="145" y1="21.5" x2="145" y2="48.5" stroke="white" stroke-width="3"/>
<path d="M182.033 36.2949H179.699V41.5H176.77V27.2812H182.053C183.732 27.2812 185.028 27.6556 185.939 28.4043C186.851 29.153 187.307 30.2109 187.307 31.5781C187.307 32.5482 187.095 33.3587 186.672 34.0098C186.255 34.6543 185.62 35.1686 184.768 35.5527L187.844 41.3633V41.5H184.699L182.033 36.2949ZM179.699 33.9219H182.062C182.798 33.9219 183.368 33.7363 183.771 33.3652C184.175 32.9876 184.377 32.4701 184.377 31.8125C184.377 31.1419 184.185 30.6146 183.801 30.2305C183.423 29.8464 182.84 29.6543 182.053 29.6543H179.699V33.9219ZM194.221 41.6953C192.671 41.6953 191.408 41.2201 190.432 40.2695C189.462 39.319 188.977 38.0527 188.977 36.4707V36.1973C188.977 35.1361 189.182 34.1888 189.592 33.3555C190.002 32.5156 190.581 31.8711 191.33 31.4219C192.085 30.9661 192.945 30.7383 193.908 30.7383C195.354 30.7383 196.49 31.194 197.316 32.1055C198.15 33.0169 198.566 34.3092 198.566 35.9824V37.1348H191.838C191.929 37.8249 192.202 38.3783 192.658 38.7949C193.12 39.2116 193.703 39.4199 194.406 39.4199C195.493 39.4199 196.343 39.026 196.955 38.2383L198.342 39.791C197.919 40.39 197.346 40.8587 196.623 41.1973C195.9 41.5293 195.1 41.6953 194.221 41.6953ZM193.898 33.0234C193.339 33.0234 192.883 33.2122 192.531 33.5898C192.186 33.9674 191.965 34.5078 191.867 35.2109H195.793V34.9863C195.78 34.3613 195.611 33.8796 195.285 33.541C194.96 33.196 194.497 33.0234 193.898 33.0234ZM204.572 39.4199C205.093 39.4199 205.516 39.2767 205.842 38.9902C206.167 38.7038 206.337 38.3229 206.35 37.8477H208.996C208.99 38.5638 208.794 39.2214 208.41 39.8203C208.026 40.4128 207.499 40.875 206.828 41.207C206.164 41.5326 205.428 41.6953 204.621 41.6953C203.111 41.6953 201.919 41.2168 201.047 40.2598C200.174 39.2962 199.738 37.9681 199.738 36.2754V36.0898C199.738 34.4622 200.171 33.1634 201.037 32.1934C201.903 31.2233 203.091 30.7383 204.602 30.7383C205.923 30.7383 206.981 31.1159 207.775 31.8711C208.576 32.6198 208.983 33.6191 208.996 34.8691H206.35C206.337 34.3223 206.167 33.8796 205.842 33.541C205.516 33.196 205.087 33.0234 204.553 33.0234C203.895 33.0234 203.397 33.2643 203.059 33.7461C202.727 34.2214 202.561 34.9961 202.561 36.0703V36.3633C202.561 37.4505 202.727 38.2318 203.059 38.707C203.391 39.1823 203.895 39.4199 204.572 39.4199ZM213.586 41.5H210.754V30.9336H213.586V41.5ZM210.588 28.1992C210.588 27.776 210.728 27.4277 211.008 27.1543C211.294 26.8809 211.682 26.7441 212.17 26.7441C212.652 26.7441 213.036 26.8809 213.322 27.1543C213.609 27.4277 213.752 27.776 213.752 28.1992C213.752 28.6289 213.605 28.9805 213.312 29.2539C213.026 29.5273 212.645 29.6641 212.17 29.6641C211.695 29.6641 211.311 29.5273 211.018 29.2539C210.731 28.9805 210.588 28.6289 210.588 28.1992ZM225.432 36.3145C225.432 37.9421 225.061 39.2474 224.318 40.2305C223.583 41.207 222.587 41.6953 221.33 41.6953C220.262 41.6953 219.4 41.3242 218.742 40.582V45.5625H215.92V30.9336H218.537L218.635 31.9688C219.318 31.1484 220.21 30.7383 221.311 30.7383C222.613 30.7383 223.625 31.2201 224.348 32.1836C225.07 33.1471 225.432 34.4753 225.432 36.168V36.3145ZM222.609 36.1094C222.609 35.1263 222.434 34.3678 222.082 33.834C221.737 33.3001 221.232 33.0332 220.568 33.0332C219.683 33.0332 219.074 33.3717 218.742 34.0488V38.375C219.087 39.0716 219.702 39.4199 220.588 39.4199C221.936 39.4199 222.609 38.3164 222.609 36.1094ZM232.053 41.6953C230.503 41.6953 229.24 41.2201 228.264 40.2695C227.294 39.319 226.809 38.0527 226.809 36.4707V36.1973C226.809 35.1361 227.014 34.1888 227.424 33.3555C227.834 32.5156 228.413 31.8711 229.162 31.4219C229.917 30.9661 230.777 30.7383 231.74 30.7383C233.186 30.7383 234.322 31.194 235.148 32.1055C235.982 33.0169 236.398 34.3092 236.398 35.9824V37.1348H229.67C229.761 37.8249 230.035 38.3783 230.49 38.7949C230.952 39.2116 231.535 39.4199 232.238 39.4199C233.326 39.4199 234.175 39.026 234.787 38.2383L236.174 39.791C235.751 40.39 235.178 40.8587 234.455 41.1973C233.732 41.5293 232.932 41.6953 232.053 41.6953ZM231.73 33.0234C231.171 33.0234 230.715 33.2122 230.363 33.5898C230.018 33.9674 229.797 34.5078 229.699 35.2109H233.625V34.9863C233.612 34.3613 233.443 33.8796 233.117 33.541C232.792 33.196 232.329 33.0234 231.73 33.0234Z" fill="white"/>
<line x1="271" y1="21.5" x2="271" y2="48.5" stroke="white" stroke-width="3"/>
<path d="M305.699 36.4902V41.5H302.77V27.2812H308.316C309.384 27.2812 310.322 27.4766 311.129 27.8672C311.943 28.2578 312.568 28.8145 313.004 29.5371C313.44 30.2533 313.658 31.0703 313.658 31.9883C313.658 33.3815 313.18 34.4818 312.223 35.2891C311.272 36.0898 309.954 36.4902 308.268 36.4902H305.699ZM305.699 34.1172H308.316C309.091 34.1172 309.68 33.9349 310.084 33.5703C310.494 33.2057 310.699 32.6849 310.699 32.0078C310.699 31.3112 310.494 30.748 310.084 30.3184C309.674 29.8887 309.107 29.6673 308.385 29.6543H305.699V34.1172ZM314.918 36.1191C314.918 35.071 315.12 34.1367 315.523 33.3164C315.927 32.4961 316.507 31.8613 317.262 31.4121C318.023 30.9629 318.906 30.7383 319.908 30.7383C321.334 30.7383 322.496 31.1745 323.395 32.0469C324.299 32.9193 324.804 34.1042 324.908 35.6016L324.928 36.3242C324.928 37.9453 324.475 39.2474 323.57 40.2305C322.665 41.207 321.451 41.6953 319.928 41.6953C318.404 41.6953 317.187 41.207 316.275 40.2305C315.37 39.2539 314.918 37.9258 314.918 36.2461V36.1191ZM317.74 36.3242C317.74 37.3268 317.929 38.0951 318.307 38.6289C318.684 39.1562 319.225 39.4199 319.928 39.4199C320.611 39.4199 321.145 39.1595 321.529 38.6387C321.913 38.1113 322.105 37.2715 322.105 36.1191C322.105 35.1361 321.913 34.3743 321.529 33.834C321.145 33.2936 320.605 33.0234 319.908 33.0234C319.218 33.0234 318.684 33.2936 318.307 33.834C317.929 34.3678 317.74 35.1979 317.74 36.3242ZM336.178 36.3145C336.178 37.9421 335.807 39.2474 335.064 40.2305C334.329 41.207 333.333 41.6953 332.076 41.6953C331.008 41.6953 330.146 41.3242 329.488 40.582V45.5625H326.666V30.9336H329.283L329.381 31.9688C330.064 31.1484 330.956 30.7383 332.057 30.7383C333.359 30.7383 334.371 31.2201 335.094 32.1836C335.816 33.1471 336.178 34.4753 336.178 36.168V36.3145ZM333.355 36.1094C333.355 35.1263 333.18 34.3678 332.828 33.834C332.483 33.3001 331.979 33.0332 331.314 33.0332C330.429 33.0332 329.82 33.3717 329.488 34.0488V38.375C329.833 39.0716 330.449 39.4199 331.334 39.4199C332.682 39.4199 333.355 38.3164 333.355 36.1094ZM344.264 40.4258C343.567 41.2721 342.604 41.6953 341.373 41.6953C340.24 41.6953 339.374 41.3698 338.775 40.7188C338.183 40.0677 337.88 39.1139 337.867 37.8574V30.9336H340.689V37.7598C340.689 38.86 341.191 39.4102 342.193 39.4102C343.15 39.4102 343.808 39.0781 344.166 38.4141V30.9336H346.998V41.5H344.342L344.264 40.4258ZM352.105 41.5H349.273V26.5H352.105V41.5ZM360.562 41.5C360.432 41.2461 360.338 40.9303 360.279 40.5527C359.596 41.3145 358.707 41.6953 357.613 41.6953C356.578 41.6953 355.719 41.3958 355.035 40.7969C354.358 40.1979 354.02 39.4427 354.02 38.5312C354.02 37.4115 354.433 36.5521 355.26 35.9531C356.093 35.3542 357.294 35.0514 358.863 35.0449H360.162V34.4395C360.162 33.9512 360.035 33.5605 359.781 33.2676C359.534 32.9746 359.14 32.8281 358.6 32.8281C358.124 32.8281 357.75 32.9421 357.477 33.1699C357.21 33.3978 357.076 33.7103 357.076 34.1074H354.254C354.254 33.4954 354.443 32.929 354.82 32.4082C355.198 31.8874 355.732 31.4805 356.422 31.1875C357.112 30.888 357.887 30.7383 358.746 30.7383C360.048 30.7383 361.08 31.0671 361.842 31.7246C362.61 32.3757 362.994 33.2936 362.994 34.4785V39.0586C363.001 40.0612 363.141 40.8197 363.414 41.334V41.5H360.562ZM358.229 39.5371C358.645 39.5371 359.029 39.446 359.381 39.2637C359.732 39.0749 359.993 38.8242 360.162 38.5117V36.6953H359.107C357.695 36.6953 356.943 37.1836 356.852 38.1602L356.842 38.3262C356.842 38.6777 356.965 38.9674 357.213 39.1953C357.46 39.4232 357.799 39.5371 358.229 39.5371ZM371.1 33.5801C370.715 33.528 370.377 33.502 370.084 33.502C369.016 33.502 368.316 33.8633 367.984 34.5859V41.5H365.162V30.9336H367.828L367.906 32.1934C368.473 31.2233 369.257 30.7383 370.26 30.7383C370.572 30.7383 370.865 30.7806 371.139 30.8652L371.1 33.5801Z" fill="white"/>
</svg>
