<svg width="342" height="396" viewBox="0 0 342 396" fill="none" xmlns="http://www.w3.org/2000/svg">
<rect width="342" height="396" rx="30" fill="#DEEDE0"/>
<g clip-path="url(#clip0_1_1243)">
<path d="M110.484 197.454C109.786 197.454 109.082 197.441 108.39 197.415L108.406 196.817C109.399 196.854 110.412 196.864 111.41 196.848L111.416 197.447C111.106 197.452 110.795 197.454 110.484 197.454ZM114.441 197.316L114.411 196.718C115.406 196.648 116.413 196.55 117.405 196.426L117.457 197.021C116.458 197.146 115.443 197.245 114.441 197.316ZM105.369 197.222C104.366 197.131 103.353 197.011 102.357 196.865L102.418 196.271C103.406 196.415 104.412 196.535 105.407 196.625L105.369 197.222ZM120.459 196.564L120.383 195.972C121.371 195.794 122.367 195.586 123.342 195.356L123.44 195.943C122.457 196.175 121.454 196.384 120.459 196.564ZM99.3626 196.345C98.3721 196.145 97.3722 195.915 96.3909 195.662L96.4975 195.076C97.4714 195.328 98.4635 195.556 99.4465 195.755L99.3626 196.345ZM126.394 195.159L126.273 194.578C127.243 194.292 128.218 193.977 129.172 193.64L129.314 194.214C128.353 194.553 127.371 194.871 126.394 195.159ZM93.4491 194.816C92.4774 194.508 91.4997 194.169 90.5429 193.809L90.6944 193.238C91.6439 193.596 92.6142 193.932 93.5782 194.237L93.4491 194.816ZM132.195 193.109L132.03 192.544C132.971 192.154 133.918 191.733 134.844 191.292L135.03 191.848C134.098 192.292 133.144 192.717 132.195 193.109H132.195ZM87.6714 192.64C86.7278 192.227 85.7783 191.781 84.8495 191.316L85.0446 190.764C85.9663 191.226 86.9084 191.668 87.8449 192.078L87.6714 192.64ZM137.807 190.435L137.599 189.89C138.503 189.401 139.411 188.879 140.299 188.338L140.528 188.871C139.633 189.416 138.718 189.942 137.807 190.435H137.807ZM143.186 187.16L142.937 186.641C143.804 186.052 144.669 185.432 145.508 184.8L145.776 185.306C144.931 185.943 144.059 186.567 143.186 187.16H143.186ZM148.294 183.312L148.006 182.821C148.822 182.142 149.637 181.431 150.427 180.708L150.733 181.182C149.937 181.911 149.116 182.628 148.294 183.312ZM71.6788 182.469C70.8675 181.767 70.057 181.031 69.2697 180.283L69.5834 179.815C70.3646 180.558 71.169 181.288 71.974 181.984L71.6788 182.469ZM153.089 178.923L152.765 178.465C153.525 177.7 154.282 176.904 155.015 176.097L155.356 176.537C154.618 177.35 153.855 178.152 153.089 178.923H153.089ZM66.9473 177.969C66.1916 177.181 65.4409 176.361 64.7161 175.532L65.0642 175.1C65.7836 175.923 66.5285 176.737 67.2784 177.519L66.9473 177.969ZM157.531 174.029L157.173 173.609C157.874 172.763 158.568 171.887 159.234 171.006L159.608 171.407C158.936 172.294 158.237 173.177 157.531 174.029ZM62.5809 172.978C61.8877 172.11 61.203 171.212 60.5459 170.311L60.9256 169.919C61.5777 170.813 62.2571 171.704 62.9452 172.565L62.5809 172.978ZM161.582 168.674L161.194 168.294C161.827 167.375 162.451 166.428 163.048 165.477L163.451 165.835C162.849 166.794 162.221 167.749 161.582 168.674L161.582 168.674ZM58.6153 167.537C57.9928 166.6 57.3797 165.633 56.7932 164.662L57.2012 164.312C57.7832 165.276 58.3916 166.236 59.0095 167.166L58.6153 167.537ZM165.209 162.898L164.793 162.562C165.354 161.579 165.903 160.567 166.425 159.554L166.853 159.868C166.327 160.888 165.774 161.908 165.209 162.898L165.209 162.898ZM55.0837 161.692C54.536 160.692 53.9999 159.663 53.4902 158.633L53.9232 158.329C54.4291 159.351 54.9611 160.372 55.5046 161.365L55.0837 161.692ZM168.379 156.75L167.94 156.46C168.422 155.42 168.891 154.352 169.334 153.285L169.784 153.551C169.338 154.625 168.866 155.702 168.379 156.75ZM171.064 150.277L170.604 150.037C171.004 148.948 171.389 147.832 171.747 146.721L172.216 146.936C171.855 148.055 171.467 149.179 171.064 150.277ZM49.4397 148.986C49.0543 147.884 48.6853 146.757 48.3429 145.636L48.8154 145.431C49.1551 146.544 49.5213 147.662 49.9036 148.755L49.4397 148.986ZM173.238 143.533L172.76 143.345C173.074 142.219 173.37 141.068 173.64 139.924L174.124 140.086C173.852 141.239 173.554 142.399 173.238 143.533ZM47.3746 142.221C47.0755 141.08 46.7945 139.914 46.5393 138.756L47.0256 138.604C47.2788 139.754 47.5577 140.91 47.8545 142.043L47.3746 142.221ZM174.876 136.595L174.386 136.459C174.611 135.305 174.817 134.127 174.998 132.957L175.492 133.066C175.31 134.244 175.103 135.432 174.876 136.595V136.595ZM45.8393 135.249C45.6297 134.08 45.44 132.889 45.2755 131.708L45.7713 131.61C45.9347 132.782 46.1229 133.964 46.331 135.124L45.8393 135.249ZM175.971 129.507L175.473 129.426C175.608 128.253 175.723 127.058 175.813 125.872L176.313 125.926C176.223 127.121 176.107 128.325 175.971 129.507V129.507ZM44.8487 128.14C44.7301 126.955 44.6328 125.748 44.5593 124.553L45.0608 124.509C45.1335 125.695 45.2302 126.893 45.3479 128.069L44.8487 128.14ZM176.518 122.33L176.016 122.303C176.061 121.117 176.083 119.914 176.083 118.727H176.586C176.586 119.923 176.563 121.135 176.518 122.33ZM44.407 120.953C44.3898 120.219 44.3811 119.47 44.381 118.727C44.381 118.266 44.3843 117.807 44.3909 117.348L44.8936 117.358C44.887 117.814 44.8837 118.27 44.8837 118.727C44.8838 119.464 44.8925 120.208 44.9094 120.936L44.407 120.953ZM45.0129 113.784L44.5112 113.747C44.5739 112.55 44.6606 111.342 44.7684 110.156L45.2682 110.22C45.161 111.398 45.0752 112.597 45.0129 113.784H45.0129ZM175.759 110.132C175.658 108.951 175.52 108.376 175.375 107.201L175.872 107.113C176.019 108.297 176.145 109.201 176.246 110.39L175.759 110.132ZM45.6595 106.674L45.1627 106.582C45.3167 105.398 45.4957 104.204 45.6946 103.034L46.1872 103.153C45.9899 104.314 45.8123 105.499 45.6595 106.674ZM174.867 103.676C174.675 102.508 174.459 101.332 174.224 100.182L174.713 100.04C174.949 101.2 175.167 102.384 175.361 103.561L174.867 103.676ZM46.8502 99.6641L46.3626 99.5185C46.6067 98.359 46.8771 97.1898 47.1662 96.0433L47.6475 96.2155C47.3607 97.3532 47.0925 98.5135 46.8502 99.6641ZM173.447 96.7265C173.166 95.5866 172.86 94.4399 172.536 93.318L173.011 93.1233C173.338 94.2538 173.647 95.4096 173.929 96.5581L173.447 96.7265ZM48.5806 92.8051L48.1064 92.6066C48.4405 91.4748 48.8012 90.3377 49.1784 89.2267L49.6445 89.4512C49.2701 90.5536 48.9121 91.6821 48.5806 92.8051ZM171.494 89.9629C171.128 88.8611 170.735 87.7554 170.327 86.6763L170.786 86.4304C171.197 87.5179 171.592 88.6321 171.962 89.7422L171.494 89.9629ZM50.8368 86.1605L50.38 85.9105C50.7999 84.8216 51.2467 83.7296 51.7081 82.665L52.1549 82.9395C51.6968 83.9961 51.2534 85.0797 50.8368 86.1605ZM169.034 83.4557C168.584 82.3988 168.108 81.3397 167.618 80.3082L168.055 80.0133C168.549 81.0528 169.029 82.1199 169.483 83.185L169.034 83.4557ZM53.5958 79.7949L53.1601 79.4962C53.6615 78.4591 54.1904 77.4211 54.732 76.4111L55.1556 76.7332C54.6182 77.7356 54.0933 78.7658 53.5958 79.7949ZM166.081 77.24C165.55 76.2329 164.994 75.2296 164.428 74.2579L164.841 73.9168C165.411 74.8959 165.972 75.9068 166.507 76.9216L166.081 77.24ZM56.8313 73.7605L56.4204 73.4156C56.9999 72.4368 57.6058 71.4611 58.2216 70.5157L58.6188 70.8826C58.0077 71.821 57.4063 72.7892 56.8313 73.7605ZM162.662 71.3681C162.056 70.4232 161.425 69.4838 160.786 68.5761L161.172 68.1916C161.815 69.1063 162.451 70.0527 163.061 71.0048L162.662 71.3681ZM60.5143 68.1056L60.1316 67.7174C60.7819 66.8077 61.4597 65.9022 62.1461 65.0261L62.5136 65.4345C61.8324 66.304 61.1598 67.2028 60.5143 68.1056ZM158.806 65.888C158.131 65.0127 157.43 64.145 156.724 63.3096L157.079 62.8848C157.79 63.7269 158.496 64.6009 159.176 65.4829L158.806 65.888ZM64.6123 62.8755L64.2608 62.4475C64.9796 61.61 65.7234 60.7819 66.4714 59.9865L66.8062 60.4332C66.0639 61.2225 65.3257 62.0442 64.6123 62.8755ZM154.546 60.846C153.806 60.0466 153.042 59.2582 152.276 58.5027L152.596 58.0414C153.368 58.8026 154.138 59.597 154.884 60.4025L154.546 60.846ZM69.0908 58.1124L68.7734 57.6482C69.5509 56.8942 70.3543 56.1505 71.1616 55.4378L71.4611 55.9187C70.6598 56.6261 69.8623 57.3641 69.0908 58.1124ZM73.912 53.8566L73.6315 53.3599C74.4635 52.6931 75.3202 52.0402 76.1776 51.4189L76.4388 51.9304C75.5879 52.547 74.7378 53.195 73.912 53.8566ZM79.0363 50.1443L78.795 49.619C79.6753 49.0453 80.5779 48.4887 81.4777 47.9644L81.6986 48.5023C80.8057 49.0225 79.9099 49.5749 79.0363 50.1443ZM139.702 48.7572C138.808 48.2265 137.892 47.7138 136.979 47.2333L137.182 46.6858C138.102 47.1699 139.025 47.6866 139.927 48.2214L139.702 48.7572ZM84.4204 47.0078L84.2206 46.4585C85.1406 45.9836 86.0817 45.5282 87.0176 45.1047L87.196 45.6645C86.2672 46.0846 85.3334 46.5366 84.4204 47.0078ZM134.199 45.86C133.268 45.4301 132.316 45.02 131.367 44.6411L131.527 44.0734C132.483 44.4553 133.443 44.8685 134.381 45.3019L134.199 45.86ZM90.0275 44.472L89.8709 43.9031C90.8262 43.5301 91.8009 43.1789 92.7677 42.8595L92.9021 43.4363C91.9426 43.7533 90.9754 44.1018 90.0275 44.472ZM128.499 43.5819C127.54 43.2564 126.562 42.9532 125.592 42.6809L125.708 42.0983C126.685 42.3727 127.67 42.6781 128.636 43.006L128.499 43.5819ZM95.8139 42.5595L95.7019 41.9758C96.6813 41.7094 97.6789 41.4666 98.667 41.2544L98.7563 41.8434C97.7756 42.0542 96.7857 42.295 95.8139 42.5595ZM122.654 41.9407C121.675 41.7219 120.678 41.5272 119.69 41.3621L119.76 40.7692C120.755 40.9357 121.76 41.1319 122.747 41.3523L122.654 41.9407ZM101.723 41.2893L101.657 40.6959C102.652 40.5377 103.664 40.4047 104.665 40.3009L104.708 40.8973C103.715 41.0005 102.711 41.1323 101.723 41.2893ZM116.707 40.9458C115.717 40.8347 114.709 40.7491 113.712 40.6916L113.736 40.0935C114.741 40.1516 115.757 40.2378 116.755 40.3498L116.707 40.9458ZM107.706 40.6677L107.685 40.0696C108.609 40.0237 109.55 40.0003 110.484 40L110.711 40.0004L110.71 40.5991L110.484 40.5987C109.557 40.599 108.623 40.6222 107.706 40.6677V40.6677Z" fill="#3F3D56"/>
<path d="M191.359 68.2V262.234C191.357 264.545 190.585 266.761 189.213 268.395C187.84 270.029 185.979 270.947 184.038 270.948H117.898C116.936 270.95 115.984 270.726 115.095 270.289C114.206 269.852 113.399 269.21 112.719 268.401C112.038 267.591 111.499 266.63 111.131 265.572C110.764 264.513 110.575 263.379 110.576 262.234V68.2C110.576 67.0548 110.765 65.9209 111.133 64.8629C111.501 63.8049 112.04 62.8436 112.72 62.0339C113.4 61.2241 114.207 60.5818 115.096 60.1437C115.984 59.7055 116.936 59.48 117.898 59.4801H127.795V60.9918C127.795 62.8959 128.43 64.7222 129.56 66.0689C130.691 67.4156 132.224 68.1725 133.823 68.173H167.462C168.749 68.1763 170.002 67.685 171.036 66.7721C171.245 66.5911 171.443 66.393 171.629 66.1794C172.218 65.5098 172.686 64.7047 173.006 63.8129C173.326 62.9212 173.49 61.9614 173.489 60.9918V59.4801H184.038C184.999 59.4798 185.952 59.7051 186.84 60.1431C187.728 60.5812 188.536 61.2235 189.216 62.0333C189.896 62.8431 190.435 63.8045 190.803 64.8626C191.171 65.9207 191.36 67.0548 191.359 68.2Z" fill="#3F3D56"/>
<path d="M181.69 129.428H120.246V185.105H181.69V129.428Z" fill="#7EB685"/>
<path d="M87.8901 120.046C93.3607 120.186 97.7126 124.908 97.7126 124.908C97.7126 124.908 93.1947 129.403 87.7241 129.263C82.2535 129.123 77.9017 124.402 77.9017 124.402C77.9017 124.402 82.4195 119.907 87.8901 120.046Z" fill="#7EB685"/>
<path d="M60.3866 97.8058C65.3291 100.602 70.9966 98.7059 70.9966 98.7059C70.9966 98.7059 68.6507 92.2755 63.7082 89.479C58.7657 86.6825 53.0983 88.5788 53.0983 88.5788C53.0983 88.5788 55.4442 95.0093 60.3866 97.8058Z" fill="#7EB685"/>
<path d="M60.8891 95.0268C66.3383 94.4337 71.1079 98.5431 71.1079 98.5431C71.1079 98.5431 67.0427 103.614 61.5935 104.207C56.1444 104.8 51.3747 100.691 51.3747 100.691C51.3747 100.691 55.4399 95.6199 60.8891 95.0268Z" fill="#3F3D56"/>
<path d="M80.864 96.1504C80.3417 102.638 83.7708 108.336 83.7708 108.336C83.7708 108.336 88.0468 103.517 88.5691 97.0303C89.0914 90.5431 85.6622 84.8442 85.6622 84.8442C85.6622 84.8442 81.3863 89.6632 80.864 96.1504Z" fill="#3F3D56"/>
<path d="M106.527 135.936C103.669 141.493 104.652 148.406 104.652 148.406C104.652 148.406 110.269 146.308 113.128 140.751C115.986 135.194 115.002 128.281 115.002 128.281C115.002 128.281 109.385 130.379 106.527 135.936Z" fill="#3F3D56"/>
<path d="M98.2352 196.358L98.6517 196.023C97.1835 193.485 96.3819 190.485 96.3486 187.404C96.3603 182.896 98.2192 178.727 100.017 174.696C100.351 173.947 100.683 173.201 101.003 172.456C102.346 169.416 103.416 166.216 104.196 162.909C106.985 150.567 104.239 136.006 96.8523 123.958C90.9922 114.4 82.2565 106.043 70.1464 98.4073L69.9113 98.9365C81.9524 106.528 90.6321 114.828 96.4463 124.311C103.745 136.214 106.46 150.585 103.711 162.754C102.94 166.02 101.883 169.181 100.556 172.183C100.237 172.926 99.9055 173.669 99.573 174.415C97.7466 178.511 95.858 182.746 95.846 187.402C95.8792 190.603 96.7108 193.721 98.2352 196.358Z" fill="#3F3D56"/>
<path d="M46.2755 99.194C48.9129 99.194 51.0509 96.6476 51.0509 93.5065C51.0509 90.3654 48.9129 87.819 46.2755 87.819C43.6381 87.819 41.5 90.3654 41.5 93.5065C41.5 96.6476 43.6381 99.194 46.2755 99.194Z" fill="#3F3D56"/>
<path d="M113.499 185.828L83.5222 182.853V130.49L113.499 128.705V185.828Z" fill="#7EB685"/>
<path d="M188.436 185.828L218.413 182.853V130.49L188.436 128.705V185.828Z" fill="#7EB685"/>
<path d="M161.388 150.326C160.496 149.408 159.397 148.824 158.228 148.647C157.058 148.47 155.871 148.708 154.815 149.331C153.898 149.859 152.911 150.195 151.898 150.325C151.873 147.711 152.275 145.117 153.084 142.687L153.216 142.279H151.455L151.404 142.499C151.208 143.359 151.053 144.231 150.941 145.111C150.845 144.729 150.722 144.359 150.572 144.003C149.336 141.085 146.481 139.891 146.36 139.842L146.116 139.742L146.039 140.035C146 140.18 145.109 143.624 146.344 146.542C147.229 148.632 148.944 149.837 149.891 150.371C148.692 150.279 147.52 149.906 146.443 149.272C145.771 148.86 145.016 148.682 144.263 148.757C143.51 148.833 142.79 149.16 142.186 149.7C138.896 152.677 137.009 157.042 137.009 161.674C137.009 167.759 140.318 173.332 145.439 175.871C145.901 176.099 146.396 176.216 146.896 176.215C147.591 176.216 148.273 175.993 148.87 175.571C149.663 175.021 150.565 174.73 151.483 174.728C152.402 174.726 153.304 175.012 154.1 175.558C154.614 175.92 155.192 176.134 155.788 176.184C156.384 176.234 156.981 176.118 157.533 175.846C162.624 173.297 165.914 167.734 165.914 161.674C165.914 157.336 164.306 153.306 161.388 150.326ZM151.839 142.878H152.486C151.758 145.199 151.388 147.657 151.391 150.134H151.276C151.12 147.695 151.31 145.242 151.839 142.878ZM146.793 146.273C145.855 144.057 146.266 141.417 146.448 140.526C147.158 140.88 149.183 142.053 150.123 144.272C151.061 146.487 150.65 149.128 150.468 150.019C149.758 149.663 147.731 148.488 146.793 146.273ZM157.338 175.294C156.859 175.531 156.339 175.631 155.821 175.587C155.304 175.543 154.802 175.357 154.355 175.042C153.481 174.442 152.49 174.127 151.482 174.129C150.474 174.132 149.484 174.452 148.613 175.056C148.167 175.372 147.666 175.56 147.149 175.606C146.631 175.651 146.112 175.553 145.632 175.318C140.699 172.872 137.512 167.517 137.512 161.674C137.512 157.23 139.327 153.04 142.49 150.177C143.097 149.631 143.837 149.337 144.598 149.339C145.159 149.338 145.713 149.498 146.213 149.804C147.589 150.587 149.094 150.998 150.62 151.009C152.145 151.02 153.654 150.63 155.039 149.867C156.007 149.296 157.094 149.079 158.165 149.241C159.236 149.404 160.243 149.939 161.06 150.78C163.866 153.645 165.411 157.514 165.411 161.674C165.411 167.493 162.242 172.839 157.338 175.294Z" fill="white"/>
<path d="M98.4287 144.668V143.966H98.6633V141.776C98.6642 141.614 98.6276 141.454 98.5575 141.315C98.4875 141.176 98.3866 141.062 98.266 140.987C97.2286 140.342 96.1138 140.343 94.9524 140.99C94.8242 141.062 94.716 141.177 94.6402 141.32C94.5645 141.463 94.5244 141.628 94.5246 141.797V143.965H94.7591V144.602C93.8959 144.89 93.1359 145.507 92.5956 146.359C92.0553 147.211 91.7647 148.251 91.7682 149.319V154.056L92.2149 154.234L91.7682 154.588V156.012L92.2149 156.189L91.7682 156.544V157.968L92.2149 158.145L91.7682 158.5V169.343C91.769 170.188 92.0515 170.999 92.5536 171.597C93.0557 172.195 93.7365 172.532 94.4467 172.533H98.3954C99.1039 172.532 99.7832 172.196 100.284 171.6C100.785 171.003 101.067 170.194 101.068 169.35V158.5L100.621 158.145L101.068 157.968V156.544L100.621 156.189L101.068 156.012V154.588L100.621 154.234L101.068 154.056V149.074C101.065 148.105 100.809 147.16 100.337 146.371C99.864 145.582 99.1974 144.987 98.4287 144.668ZM95.1652 141.532C96.1918 140.961 97.1302 140.956 98.0333 141.518C98.0722 141.543 98.1045 141.58 98.1269 141.626C98.1493 141.671 98.161 141.723 98.1606 141.776V142.948H95.0273V141.797C95.0269 141.742 95.0396 141.688 95.064 141.641C95.0885 141.594 95.1235 141.556 95.1652 141.532ZM100.565 153.625L99.4871 154.053L100.565 154.909V155.58L99.4871 156.008L100.565 156.864V157.536L99.4871 157.964L100.565 158.82V169.35C100.564 170.035 100.336 170.692 99.9289 171.176C99.5221 171.661 98.9706 171.933 98.3954 171.934H94.4467C93.8698 171.933 93.3168 171.66 92.9089 171.174C92.501 170.688 92.2715 170.03 92.2709 169.343V158.82L93.3489 157.964L92.2709 157.536V156.864L93.3489 156.008L92.2709 155.58V154.909L93.3489 154.053L92.2709 153.625V149.319C92.2677 148.345 92.5429 147.4 93.0512 146.638C93.5594 145.875 94.2705 145.342 95.0672 145.125L95.2618 145.072V143.966H97.9261V145.112L98.1073 145.175C98.8149 145.423 99.4363 145.936 99.8791 146.639C100.322 147.342 100.563 148.196 100.565 149.074V153.625Z" fill="white"/>
<path d="M216.575 152.867L215.309 152.565L215.607 151.856L215.027 151.717L215.127 150.998L214.493 150.872V150.191L213.979 150.016L214.467 149.289H213.62L213.797 148.763L213.171 148.639L213.383 147.751H212.706V146.923H212.454C211.662 146.923 211.221 148.044 211.076 148.492C206.704 149.4 194.012 159.871 192.563 161.075C191.961 160.842 191.069 161.387 190.882 161.508L190.587 161.7L191.013 162.207L190.886 162.66L191.667 163.009L191.496 163.518L191.988 164.006L191.546 164.401L192.211 164.877L192.094 165.571L192.837 165.698V166.393L193.268 166.496L193.053 167.393H193.532V168.103H193.999L194.211 168.859L194.429 168.807C194.934 168.686 195.367 167.853 195.537 167.484C199.747 166.589 212.744 155.698 214.01 154.631C215.487 154.842 216.029 154.372 216.087 154.317L216.328 154.088L215.754 153.518L216.575 152.867ZM213.977 154.023L213.879 154.007L213.799 154.076C213.655 154.197 199.401 166.224 195.337 166.916L195.207 166.938L195.148 167.078C194.992 167.457 194.781 167.799 194.526 168.091L194.362 167.504H194.035V166.795H193.719L193.902 166.036L193.34 165.902V165.179L192.692 165.068L192.774 164.58L192.446 164.346L192.798 164.031L192.098 163.337L192.325 162.663L191.516 162.302L191.588 162.045L191.432 161.859C191.81 161.672 192.266 161.533 192.462 161.673L192.603 161.773L192.736 161.662C192.879 161.542 207.037 149.749 211.297 149.057L211.456 149.031L211.503 148.848C211.576 148.565 211.836 147.851 212.203 147.606V148.35H212.717L212.533 149.119L213.098 149.231L212.877 149.888H213.421L213.115 150.344L213.991 150.642V151.38L214.549 151.49L214.451 152.191L214.863 152.289L214.565 152.999L215.286 153.17L214.915 153.465L215.449 153.995C214.964 154.112 214.465 154.121 213.977 154.023Z" fill="white"/>
<path d="M150.968 210.55C154.993 210.55 158.257 206.663 158.257 201.869C158.257 197.074 154.993 193.188 150.968 193.188C146.942 193.188 143.679 197.074 143.679 201.869C143.679 206.663 146.942 210.55 150.968 210.55Z" fill="#7EB685"/>
<path d="M155.557 201.011H151.688V196.403H150.248V201.011H146.379V202.726H150.248V207.334H151.688V202.726H155.557V201.011Z" fill="white"/>
<path d="M173.957 202.168L170.186 200.073V201.27H161.39V203.066H170.186V204.263L173.957 202.168Z" fill="white"/>
<path d="M127.979 202.168L131.749 200.073V201.27H140.546V203.066H131.749V204.263L127.979 202.168Z" fill="white"/>
<path d="M243.084 271.017H58.8516V271.616H243.084V271.017Z" fill="#3F3D56"/>
<path d="M175.096 87.8188H126.839V88.4175H175.096V87.8188Z" fill="white"/>
<path d="M175.213 251.26H126.956V251.859H175.213V251.26Z" fill="white"/>
<path d="M252.752 192.14L251.495 197.827C251.495 197.827 246.971 209.801 251.495 210.4C256.019 210.998 256.271 194.834 256.271 194.834L252.752 192.14Z" fill="#A0616A"/>
<path d="M260.543 151.13L251.495 193.637C251.495 193.637 255.014 194.834 256.773 196.331L260.543 151.13Z" fill="#D0CDE1"/>
<path d="M288.945 183.459L291.458 229.857C291.458 229.857 297.49 248.117 297.239 265.479C297.239 265.479 294.977 272.364 296.736 273.561C298.496 274.759 299.501 275.657 298.496 276.555C297.49 277.453 296.736 279.548 297.49 280.147C298.244 280.745 298.496 281.643 298.244 281.643H290.704C290.704 281.643 292.212 277.153 289.95 275.956C287.688 274.759 288.945 271.765 288.945 271.765L272.105 213.094L258.784 266.976C258.784 266.976 261.046 268.772 259.287 269.67C257.527 270.568 256.773 268.772 257.527 270.568C258.281 272.364 257.276 273.262 257.276 273.561C257.276 273.861 249.736 272.663 249.736 272.663C249.736 272.663 253.506 268.772 251.746 267.874C249.987 266.976 249.233 266.078 249.736 265.479C250.238 264.88 252.249 259.193 252.249 259.193C252.249 259.193 253.254 237.64 253.506 236.742C253.757 235.844 253.506 231.653 253.506 229.558C253.506 227.462 253.254 219.081 254.008 216.985C254.763 214.89 255.517 189.147 259.538 186.153C263.559 183.16 288.945 183.459 288.945 183.459Z" fill="#2F2E41"/>
<path d="M257.025 272.064C257.025 272.064 262.051 284.338 258.533 285.834C255.014 287.331 250.49 286.134 249.484 287.93C248.479 289.726 237.42 291.821 237.169 287.331C236.917 282.841 249.233 274.459 249.233 274.459L250.837 271.383L257.025 272.064Z" fill="#2F2E41"/>
<path d="M297.742 281.045C297.742 281.045 302.768 293.318 299.25 294.815C295.731 296.311 291.207 295.114 290.201 296.91C289.196 298.706 278.137 300.801 277.886 296.311C277.634 291.821 289.95 283.44 289.95 283.44L291.554 280.363L297.742 281.045Z" fill="#2F2E41"/>
<path d="M274.493 127.033C279.074 127.033 282.787 122.61 282.787 117.155C282.787 111.699 279.074 107.276 274.493 107.276C269.912 107.276 266.198 111.699 266.198 117.155C266.198 122.61 269.912 127.033 274.493 127.033Z" fill="#A0616A"/>
<path d="M280.148 122.393L279.143 131.074L271.602 137.959L269.592 134.666V123.291L280.148 122.393Z" fill="#A0616A"/>
<path d="M268.335 133.469C268.335 133.469 276.126 134.367 280.148 131.074L288.191 187.65C288.191 187.65 259.789 190.344 258.533 188.548V170.887L263.559 142.15L268.335 133.469Z" fill="#3F3D56"/>
<path d="M279.456 128.369L282.159 131.074C282.159 131.074 293.218 133.169 292.464 136.761L289.447 179.268L290.453 193.637C290.453 193.637 281.907 190.943 275.372 193.637C268.838 196.331 274.029 135.743 274.029 135.743C274.029 135.743 280.02 129.256 279.456 128.369Z" fill="#D0CDE1"/>
<path d="M269.592 131.646C269.592 131.646 261.549 138.557 260.543 143.048C259.538 147.538 256.271 194.834 256.271 194.834C256.271 194.834 257.779 193.936 258.533 195.433C259.287 196.929 270.848 134.013 269.592 131.646Z" fill="#D0CDE1"/>
<path d="M291.71 194.235L289.908 201.237C289.908 201.237 289.448 214.291 283.415 212.495C277.383 210.699 285.175 195.433 285.175 195.433L286.934 192.14L291.71 194.235Z" fill="#A0616A"/>
<path d="M266.202 116.724C266.202 116.724 265.305 115.12 265.65 113.393C265.856 112.412 265.938 111.4 265.892 110.39C265.892 110.39 266.617 107.593 267.342 106.03C268.067 104.467 267.722 103.809 270.001 103.316C272.281 102.822 271.348 99.2849 277.357 103.11C277.56 103.447 277.842 103.705 278.168 103.852C278.493 103.998 278.848 104.026 279.188 103.933C280.431 103.645 280.88 105.701 280.88 105.701C280.88 105.701 281.709 105.125 282.019 105.948C282.33 106.771 284.546 105.454 284.546 111.007C284.546 116.559 282.024 121.519 282.024 121.519C282.024 121.519 282.209 112.179 278.1 111.233C273.99 110.287 269.57 107.532 268.499 111.069C267.921 113.054 267.15 114.952 266.202 116.724Z" fill="#2F2E41"/>
<path d="M282.115 118.945C282.562 118.945 282.925 118.369 282.925 117.658C282.925 116.947 282.562 116.37 282.115 116.37C281.667 116.37 281.304 116.947 281.304 117.658C281.304 118.369 281.667 118.945 282.115 118.945Z" fill="#A0616A"/>
<path d="M290.453 134.666C290.453 134.666 294.474 133.469 295.731 141.551C296.988 149.633 298.496 172.683 298.496 172.683L292.464 196.929C292.464 196.929 286.431 193.038 285.175 193.637L289.922 172.587L285.929 151.13C285.929 151.13 289.447 134.666 290.453 134.666Z" fill="#D0CDE1"/>
<path opacity="0.15" d="M284.606 151.539L289.884 172.493L284.606 193.747L287.622 172.493L284.606 151.539Z" fill="black"/>
</g>
<path d="M54.2031 342.141C54.2031 341.141 53.849 340.37 53.1406 339.828C52.4427 339.286 51.1771 338.74 49.3438 338.188C47.5104 337.635 46.0521 337.021 44.9688 336.344C42.8958 335.042 41.8594 333.344 41.8594 331.25C41.8594 329.417 42.6042 327.906 44.0938 326.719C45.5938 325.531 47.5365 324.938 49.9219 324.938C51.5052 324.938 52.9167 325.229 54.1562 325.812C55.3958 326.396 56.3698 327.229 57.0781 328.312C57.7865 329.385 58.1406 330.578 58.1406 331.891H54.2031C54.2031 330.703 53.8281 329.776 53.0781 329.109C52.3385 328.432 51.276 328.094 49.8906 328.094C48.599 328.094 47.5938 328.37 46.875 328.922C46.1667 329.474 45.8125 330.245 45.8125 331.234C45.8125 332.068 46.1979 332.766 46.9688 333.328C47.7396 333.88 49.0104 334.422 50.7812 334.953C52.5521 335.474 53.974 336.073 55.0469 336.75C56.1198 337.417 56.9062 338.188 57.4062 339.062C57.9062 339.927 58.1562 340.943 58.1562 342.109C58.1562 344.005 57.4271 345.516 55.9688 346.641C54.5208 347.755 52.5521 348.312 50.0625 348.312C48.4167 348.312 46.901 348.01 45.5156 347.406C44.1406 346.792 43.0677 345.948 42.2969 344.875C41.5365 343.802 41.1562 342.552 41.1562 341.125H45.1094C45.1094 342.417 45.5365 343.417 46.3906 344.125C47.2448 344.833 48.4688 345.188 50.0625 345.188C51.4375 345.188 52.4688 344.911 53.1562 344.359C53.8542 343.797 54.2031 343.057 54.2031 342.141ZM71.3594 348C71.1927 347.677 71.0469 347.151 70.9219 346.422C69.7135 347.682 68.2344 348.312 66.4844 348.312C64.7865 348.312 63.401 347.828 62.3281 346.859C61.2552 345.891 60.7188 344.693 60.7188 343.266C60.7188 341.464 61.3854 340.083 62.7188 339.125C64.0625 338.156 65.9792 337.672 68.4688 337.672H70.7969V336.562C70.7969 335.688 70.5521 334.99 70.0625 334.469C69.5729 333.938 68.8281 333.672 67.8281 333.672C66.9635 333.672 66.2552 333.891 65.7031 334.328C65.151 334.755 64.875 335.302 64.875 335.969H61.0781C61.0781 335.042 61.3854 334.177 62 333.375C62.6146 332.562 63.4479 331.927 64.5 331.469C65.5625 331.01 66.7448 330.781 68.0469 330.781C70.026 330.781 71.6042 331.281 72.7812 332.281C73.9583 333.271 74.5625 334.667 74.5938 336.469V344.094C74.5938 345.615 74.8073 346.828 75.2344 347.734V348H71.3594ZM67.1875 345.266C67.9375 345.266 68.6406 345.083 69.2969 344.719C69.9635 344.354 70.4635 343.865 70.7969 343.25V340.062H68.75C67.3438 340.062 66.2865 340.307 65.5781 340.797C64.8698 341.286 64.5156 341.979 64.5156 342.875C64.5156 343.604 64.7552 344.188 65.2344 344.625C65.724 345.052 66.375 345.266 67.1875 345.266ZM84.2812 343.188L87.8594 331.094H91.7812L85.9219 348H82.625L76.7188 331.094H80.6562L84.2812 343.188ZM101.391 348.312C98.9844 348.312 97.0312 347.557 95.5312 346.047C94.0417 344.526 93.2969 342.505 93.2969 339.984V339.516C93.2969 337.828 93.6198 336.323 94.2656 335C94.9219 333.667 95.8385 332.63 97.0156 331.891C98.1927 331.151 99.5052 330.781 100.953 330.781C103.255 330.781 105.031 331.516 106.281 332.984C107.542 334.453 108.172 336.531 108.172 339.219V340.75H97.125C97.2396 342.146 97.7031 343.25 98.5156 344.062C99.3385 344.875 100.37 345.281 101.609 345.281C103.349 345.281 104.766 344.578 105.859 343.172L107.906 345.125C107.229 346.135 106.323 346.922 105.188 347.484C104.062 348.036 102.797 348.312 101.391 348.312ZM100.938 333.828C99.8958 333.828 99.0521 334.193 98.4062 334.922C97.7708 335.651 97.3646 336.667 97.1875 337.969H104.422V337.688C104.339 336.417 104 335.458 103.406 334.812C102.812 334.156 101.99 333.828 100.938 333.828ZM118.391 339.391C118.391 337.734 118.719 336.245 119.375 334.922C120.031 333.589 120.953 332.568 122.141 331.859C123.328 331.141 124.693 330.781 126.234 330.781C128.516 330.781 130.365 331.516 131.781 332.984C133.208 334.453 133.979 336.401 134.094 338.828L134.109 339.719C134.109 341.385 133.786 342.875 133.141 344.188C132.505 345.5 131.589 346.516 130.391 347.234C129.203 347.953 127.828 348.312 126.266 348.312C123.88 348.312 121.969 347.521 120.531 345.938C119.104 344.344 118.391 342.224 118.391 339.578V339.391ZM122.188 339.719C122.188 341.458 122.547 342.823 123.266 343.812C123.984 344.792 124.984 345.281 126.266 345.281C127.547 345.281 128.542 344.781 129.25 343.781C129.969 342.781 130.328 341.318 130.328 339.391C130.328 337.682 129.958 336.328 129.219 335.328C128.49 334.328 127.495 333.828 126.234 333.828C124.995 333.828 124.01 334.323 123.281 335.312C122.552 336.292 122.188 337.76 122.188 339.719ZM140.844 331.094L140.953 333.047C142.203 331.536 143.844 330.781 145.875 330.781C149.396 330.781 151.188 332.797 151.25 336.828V348H147.453V337.047C147.453 335.974 147.219 335.182 146.75 334.672C146.292 334.151 145.536 333.891 144.484 333.891C142.953 333.891 141.812 334.583 141.062 335.969V348H137.266V331.094H140.844ZM180.906 345.047C180.083 346.12 178.943 346.932 177.484 347.484C176.026 348.036 174.37 348.312 172.516 348.312C170.609 348.312 168.922 347.88 167.453 347.016C165.984 346.151 164.849 344.917 164.047 343.312C163.255 341.698 162.844 339.818 162.812 337.672V335.891C162.812 332.453 163.635 329.771 165.281 327.844C166.927 325.906 169.224 324.938 172.172 324.938C174.703 324.938 176.714 325.562 178.203 326.812C179.693 328.062 180.589 329.865 180.891 332.219H177.016C176.578 329.479 174.99 328.109 172.25 328.109C170.479 328.109 169.13 328.75 168.203 330.031C167.286 331.302 166.812 333.172 166.781 335.641V337.391C166.781 339.849 167.297 341.76 168.328 343.125C169.37 344.479 170.812 345.156 172.656 345.156C174.677 345.156 176.115 344.698 176.969 343.781V339.328H172.281V336.328H180.906V345.047ZM193.734 334.562C193.234 334.479 192.719 334.438 192.188 334.438C190.448 334.438 189.276 335.104 188.672 336.438V348H184.875V331.094H188.5L188.594 332.984C189.51 331.516 190.781 330.781 192.406 330.781C192.948 330.781 193.396 330.854 193.75 331L193.734 334.562ZM194.859 339.391C194.859 337.734 195.188 336.245 195.844 334.922C196.5 333.589 197.422 332.568 198.609 331.859C199.797 331.141 201.161 330.781 202.703 330.781C204.984 330.781 206.833 331.516 208.25 332.984C209.677 334.453 210.448 336.401 210.562 338.828L210.578 339.719C210.578 341.385 210.255 342.875 209.609 344.188C208.974 345.5 208.057 346.516 206.859 347.234C205.672 347.953 204.297 348.312 202.734 348.312C200.349 348.312 198.438 347.521 197 345.938C195.573 344.344 194.859 342.224 194.859 339.578V339.391ZM198.656 339.719C198.656 341.458 199.016 342.823 199.734 343.812C200.453 344.792 201.453 345.281 202.734 345.281C204.016 345.281 205.01 344.781 205.719 343.781C206.438 342.781 206.797 341.318 206.797 339.391C206.797 337.682 206.427 336.328 205.688 335.328C204.958 334.328 203.964 333.828 202.703 333.828C201.464 333.828 200.479 334.323 199.75 335.312C199.021 336.292 198.656 337.76 198.656 339.719ZM220.734 345.281C221.682 345.281 222.469 345.005 223.094 344.453C223.719 343.901 224.052 343.219 224.094 342.406H227.672C227.63 343.458 227.302 344.443 226.688 345.359C226.073 346.266 225.24 346.984 224.188 347.516C223.135 348.047 222 348.312 220.781 348.312C218.417 348.312 216.542 347.547 215.156 346.016C213.771 344.484 213.078 342.37 213.078 339.672V339.281C213.078 336.708 213.766 334.651 215.141 333.109C216.516 331.557 218.391 330.781 220.766 330.781C222.776 330.781 224.411 331.37 225.672 332.547C226.943 333.714 227.609 335.25 227.672 337.156H224.094C224.052 336.188 223.719 335.391 223.094 334.766C222.479 334.141 221.693 333.828 220.734 333.828C219.505 333.828 218.557 334.276 217.891 335.172C217.224 336.057 216.885 337.406 216.875 339.219V339.828C216.875 341.661 217.203 343.031 217.859 343.938C218.526 344.833 219.484 345.281 220.734 345.281ZM237.984 348.312C235.578 348.312 233.625 347.557 232.125 346.047C230.635 344.526 229.891 342.505 229.891 339.984V339.516C229.891 337.828 230.214 336.323 230.859 335C231.516 333.667 232.432 332.63 233.609 331.891C234.786 331.151 236.099 330.781 237.547 330.781C239.849 330.781 241.625 331.516 242.875 332.984C244.135 334.453 244.766 336.531 244.766 339.219V340.75H233.719C233.833 342.146 234.297 343.25 235.109 344.062C235.932 344.875 236.964 345.281 238.203 345.281C239.943 345.281 241.359 344.578 242.453 343.172L244.5 345.125C243.823 346.135 242.917 346.922 241.781 347.484C240.656 348.036 239.391 348.312 237.984 348.312ZM237.531 333.828C236.49 333.828 235.646 334.193 235 334.922C234.365 335.651 233.958 336.667 233.781 337.969H241.016V337.688C240.932 336.417 240.594 335.458 240 334.812C239.406 334.156 238.583 333.828 237.531 333.828ZM256.578 334.562C256.078 334.479 255.562 334.438 255.031 334.438C253.292 334.438 252.12 335.104 251.516 336.438V348H247.719V331.094H251.344L251.438 332.984C252.354 331.516 253.625 330.781 255.25 330.781C255.792 330.781 256.24 330.854 256.594 331L256.578 334.562ZM263.016 348H259.219V331.094H263.016V348ZM258.984 326.703C258.984 326.12 259.167 325.635 259.531 325.25C259.906 324.865 260.438 324.672 261.125 324.672C261.812 324.672 262.344 324.865 262.719 325.25C263.094 325.635 263.281 326.12 263.281 326.703C263.281 327.276 263.094 327.755 262.719 328.141C262.344 328.516 261.812 328.703 261.125 328.703C260.438 328.703 259.906 328.516 259.531 328.141C259.167 327.755 258.984 327.276 258.984 326.703ZM274.609 348.312C272.203 348.312 270.25 347.557 268.75 346.047C267.26 344.526 266.516 342.505 266.516 339.984V339.516C266.516 337.828 266.839 336.323 267.484 335C268.141 333.667 269.057 332.63 270.234 331.891C271.411 331.151 272.724 330.781 274.172 330.781C276.474 330.781 278.25 331.516 279.5 332.984C280.76 334.453 281.391 336.531 281.391 339.219V340.75H270.344C270.458 342.146 270.922 343.25 271.734 344.062C272.557 344.875 273.589 345.281 274.828 345.281C276.568 345.281 277.984 344.578 279.078 343.172L281.125 345.125C280.448 346.135 279.542 346.922 278.406 347.484C277.281 348.036 276.016 348.312 274.609 348.312ZM274.156 333.828C273.115 333.828 272.271 334.193 271.625 334.922C270.99 335.651 270.583 336.667 270.406 337.969H277.641V337.688C277.557 336.417 277.219 335.458 276.625 334.812C276.031 334.156 275.208 333.828 274.156 333.828ZM293.828 343.406C293.828 342.729 293.547 342.214 292.984 341.859C292.432 341.505 291.51 341.193 290.219 340.922C288.927 340.651 287.849 340.307 286.984 339.891C285.089 338.974 284.141 337.646 284.141 335.906C284.141 334.448 284.755 333.229 285.984 332.25C287.214 331.271 288.776 330.781 290.672 330.781C292.693 330.781 294.323 331.281 295.562 332.281C296.812 333.281 297.438 334.578 297.438 336.172H293.641C293.641 335.443 293.37 334.839 292.828 334.359C292.286 333.87 291.568 333.625 290.672 333.625C289.839 333.625 289.156 333.818 288.625 334.203C288.104 334.589 287.844 335.104 287.844 335.75C287.844 336.333 288.089 336.786 288.578 337.109C289.068 337.432 290.057 337.76 291.547 338.094C293.036 338.417 294.203 338.807 295.047 339.266C295.901 339.714 296.531 340.255 296.938 340.891C297.354 341.526 297.562 342.297 297.562 343.203C297.562 344.724 296.932 345.958 295.672 346.906C294.411 347.844 292.76 348.312 290.719 348.312C289.333 348.312 288.099 348.062 287.016 347.562C285.932 347.062 285.089 346.375 284.484 345.5C283.88 344.625 283.578 343.682 283.578 342.672H287.266C287.318 343.568 287.656 344.26 288.281 344.75C288.906 345.229 289.734 345.469 290.766 345.469C291.766 345.469 292.526 345.281 293.047 344.906C293.568 344.521 293.828 344.021 293.828 343.406Z" fill="black"/>
<defs>
<clipPath id="clip0_1_1243">
<rect width="259" height="259" fill="white" transform="translate(41.5 40)"/>
</clipPath>
</defs>
</svg>
