<svg width="180" height="44" viewBox="0 0 180 44" fill="none" xmlns="http://www.w3.org/2000/svg">
<path d="M38.7391 15.063L27.9078 13.4889L23.066 3.67293C22.9337 3.40417 22.7162 3.18661 22.4474 3.05437C21.7734 2.72162 20.9543 2.99891 20.6173 3.67293L15.7755 13.4889L4.9442 15.063C4.64558 15.1057 4.37256 15.2465 4.16353 15.4598C3.91082 15.7195 3.77157 16.0689 3.77637 16.4313C3.78116 16.7937 3.92962 17.1393 4.18912 17.3922L12.0257 25.0326L10.1743 35.8212C10.1308 36.0721 10.1586 36.3302 10.2544 36.5662C10.3502 36.8022 10.5103 37.0066 10.7163 37.1563C10.9224 37.306 11.1663 37.3949 11.4203 37.413C11.6744 37.4312 11.9284 37.3777 12.1537 37.2588L21.8417 32.1652L31.5296 37.2588C31.7941 37.3996 32.1013 37.4465 32.3956 37.3953C33.1379 37.2673 33.637 36.5634 33.509 35.8212L31.6576 25.0326L39.4942 17.3922C39.7075 17.1832 39.8483 16.9102 39.8909 16.6116C40.0061 15.865 39.4856 15.1739 38.7391 15.063Z" fill="#FDA202"/>
<path d="M84.1699 15.0628L73.3386 13.4887L68.4968 3.67269C68.3645 3.40393 68.147 3.18637 67.8782 3.05412C67.2042 2.72138 66.3851 2.99867 66.0481 3.67269L61.2062 13.4887L50.375 15.0628C50.0764 15.1054 49.8033 15.2462 49.5943 15.4595C49.3416 15.7193 49.2024 16.0687 49.2072 16.4311C49.212 16.7934 49.3604 17.139 49.6199 17.392L57.4565 25.0323L55.605 35.8209C55.5616 36.0719 55.5894 36.33 55.6852 36.566C55.781 36.802 55.941 37.0064 56.1471 37.1561C56.3532 37.3057 56.5971 37.3947 56.8511 37.4128C57.1052 37.4309 57.3592 37.3775 57.5845 37.2586L67.2724 32.165L76.9604 37.2586C77.2249 37.3993 77.5321 37.4463 77.8264 37.3951C78.5687 37.2671 79.0678 36.5632 78.9398 35.8209L77.0884 25.0323L84.925 17.392C85.1383 17.183 85.279 16.9099 85.3217 16.6113C85.4369 15.8648 84.9164 15.1737 84.1699 15.0628Z" fill="#FDA202"/>
<path d="M129.6 15.0628L118.769 13.4887L113.927 3.67269C113.795 3.40393 113.578 3.18637 113.309 3.05412C112.635 2.72138 111.816 2.99867 111.479 3.67269L106.637 13.4887L95.8055 15.0628C95.5069 15.1054 95.2339 15.2462 95.0249 15.4595C94.7721 15.7193 94.6329 16.0687 94.6377 16.4311C94.6425 16.7934 94.791 17.139 95.0505 17.392L102.887 25.0323L101.036 35.8209C100.992 36.0719 101.02 36.33 101.116 36.566C101.212 36.802 101.372 37.0064 101.578 37.1561C101.784 37.3057 102.028 37.3947 102.282 37.4128C102.536 37.4309 102.79 37.3775 103.015 37.2586L112.703 32.165L122.391 37.2586C122.655 37.3993 122.963 37.4463 123.257 37.3951C123.999 37.2671 124.498 36.5632 124.37 35.8209L122.519 25.0323L130.356 17.392C130.569 17.183 130.71 16.9099 130.752 16.6113C130.867 15.8648 130.347 15.1737 129.6 15.0628Z" fill="#FDA202"/>
<path d="M175.031 15.0628L164.2 13.4887L159.358 3.67269C159.226 3.40393 159.008 3.18637 158.74 3.05412C158.066 2.72138 157.247 2.99867 156.91 3.67269L152.068 13.4887L141.236 15.0628C140.938 15.1054 140.665 15.2462 140.456 15.4595C140.203 15.7193 140.064 16.0687 140.069 16.4311C140.073 16.7934 140.222 17.139 140.481 17.392L148.318 25.0323L146.466 35.8209C146.423 36.0719 146.451 36.33 146.547 36.566C146.642 36.802 146.802 37.0064 147.009 37.1561C147.215 37.3057 147.459 37.3947 147.713 37.4128C147.967 37.4309 148.221 37.3775 148.446 37.2586L158.134 32.165L167.822 37.2586C168.086 37.3993 168.394 37.4463 168.688 37.3951C169.43 37.2671 169.929 36.5632 169.801 35.8209L167.95 25.0323L175.786 17.392C176 17.183 176.14 16.9099 176.183 16.6113C176.298 15.8648 175.778 15.1737 175.031 15.0628Z" fill="#FDA202"/>
</svg>
